<svg width="339" height="339" viewBox="0 0 339 339" fill="none" xmlns="http://www.w3.org/2000/svg">
<path d="M119.873 85.0957C119.007 85.5835 118.096 85.8025 117.142 85.7527C116.191 85.6952 115.264 85.3464 114.363 84.7064C113.463 84.0586 112.655 83.0985 111.939 81.8261C111.203 80.519 110.802 79.3137 110.735 78.2104C110.665 77.1021 110.858 76.136 111.313 75.3122C111.771 74.4807 112.418 73.8294 113.255 73.3583C113.894 72.9988 114.487 72.808 115.036 72.7862C115.586 72.7566 116.084 72.8288 116.527 73.0029C116.973 73.1692 117.352 73.3669 117.663 73.5958L117.76 73.5414L114.54 67.8229L117.696 66.0459L126.259 81.2557L123.14 83.0117L122.112 81.1848L121.978 81.2601C122.008 81.6606 121.974 82.0934 121.878 82.5586C121.783 83.0161 121.578 83.4676 121.261 83.9131C120.95 84.3558 120.487 84.75 119.873 85.0957ZM119.458 82.0136C119.968 81.7265 120.321 81.3453 120.516 80.8702C120.714 80.3873 120.765 79.8403 120.668 79.2294C120.577 78.6157 120.341 77.9697 119.959 77.2914C119.577 76.6131 119.151 76.0769 118.681 75.6827C118.212 75.2886 117.722 75.0557 117.212 74.9841C116.702 74.9125 116.193 75.0202 115.683 75.3073C115.163 75.6 114.804 75.9878 114.606 76.4707C114.409 76.9536 114.359 77.4967 114.458 78.0999C114.556 78.7031 114.79 79.3339 115.161 79.9924C115.535 80.6559 115.957 81.191 116.427 81.5978C116.899 81.9969 117.392 82.2411 117.905 82.3303C118.421 82.4118 118.938 82.3063 119.458 82.0136Z" fill="#1CC26F"/>
<path d="M139.529 76.3904C138.246 76.7983 137.058 76.8895 135.967 76.664C134.88 76.4314 133.934 75.915 133.132 75.1149C132.327 74.3094 131.716 73.2488 131.297 71.933C130.89 70.6497 130.781 69.4442 130.971 68.3166C131.161 67.189 131.622 66.2107 132.354 65.3818C133.092 64.5512 134.072 63.9413 135.296 63.5523C136.119 63.2907 136.927 63.1798 137.721 63.2197C138.519 63.2524 139.266 63.447 139.964 63.8036C140.667 64.1584 141.294 64.6865 141.844 65.3878C142.394 66.0837 142.837 66.9623 143.174 68.0237L143.476 68.974L132.942 72.3225L132.26 70.1783L139.538 67.865C139.379 67.3668 139.131 66.9599 138.792 66.6443C138.453 66.3287 138.057 66.1237 137.604 66.0293C137.154 65.9278 136.677 65.9571 136.174 66.1172C135.649 66.2841 135.222 66.554 134.893 66.9267C134.568 67.2923 134.356 67.7144 134.258 68.1928C134.158 68.6657 134.184 69.1495 134.335 69.644L134.983 71.6826C135.179 72.2999 135.462 72.7972 135.833 73.1743C136.208 73.5497 136.646 73.7921 137.146 73.9015C137.646 74.011 138.185 73.9736 138.765 73.7894C139.149 73.6672 139.484 73.5012 139.769 73.2913C140.054 73.0815 140.276 72.8321 140.434 72.5432C140.593 72.2544 140.682 71.9339 140.701 71.582L143.968 70.776C144.05 71.5965 143.931 72.3738 143.61 73.1079C143.292 73.8348 142.789 74.4836 142.1 75.0544C141.415 75.618 140.558 76.0633 139.529 76.3904Z" fill="#1CC26F"/>
<path d="M162.313 62.2674L159.033 62.8447C158.945 62.5688 158.795 62.3285 158.583 62.1238C158.37 61.9134 158.104 61.7577 157.784 61.6567C157.468 61.5495 157.102 61.5195 156.684 61.5668C156.125 61.6301 155.667 61.8021 155.31 62.0827C154.952 62.3576 154.796 62.6899 154.84 63.0794C154.875 63.3899 155.029 63.6384 155.302 63.8248C155.574 64.0112 156.02 64.1351 156.639 64.1966L159.047 64.4042C160.341 64.5207 161.331 64.8317 162.017 65.3372C162.703 65.8428 163.1 66.5641 163.206 67.5013C163.302 68.3538 163.136 69.1303 162.706 69.8309C162.282 70.5307 161.656 71.1106 160.828 71.5704C160.004 72.0239 159.028 72.3146 157.899 72.4424C156.177 72.6374 154.764 72.4343 153.661 71.833C152.563 71.2254 151.856 70.3105 151.54 69.0883L155.068 68.5001C155.234 69.0131 155.539 69.3845 155.983 69.6145C156.426 69.8388 156.969 69.9145 157.613 69.8416C158.245 69.77 158.739 69.5911 159.096 69.3048C159.457 69.0123 159.619 68.6709 159.58 68.2807C159.537 67.9539 159.369 67.7014 159.074 67.5232C158.779 67.3394 158.342 67.223 157.765 67.174L155.462 66.9803C154.163 66.8701 153.167 66.5368 152.475 65.9804C151.789 65.4234 151.391 64.6594 151.281 63.6884C151.186 62.8528 151.33 62.1074 151.713 61.4521C152.102 60.7963 152.69 60.2579 153.478 59.8371C154.27 59.4157 155.223 59.142 156.335 59.016C157.978 58.83 159.31 59.0308 160.332 59.6184C161.359 60.2054 162.019 61.0884 162.313 62.2674Z" fill="#1CC26F"/>
<path d="M171.067 71.5492L171.619 58.4699L175.247 58.6232L174.694 71.7025L171.067 71.5492ZM173.513 56.8609C172.974 56.8381 172.519 56.6398 172.148 56.2658C171.783 55.8864 171.611 55.4441 171.632 54.9389C171.653 54.4394 171.862 54.0188 172.257 53.6772C172.658 53.3302 173.129 53.1681 173.668 53.1909C174.207 53.2137 174.659 53.4148 175.024 53.7942C175.395 54.1681 175.57 54.6049 175.549 55.1044C175.528 55.6097 175.316 56.0358 174.915 56.3828C174.52 56.7243 174.052 56.8837 173.513 56.8609Z" fill="#1CC26F"/>
<path d="M187.322 78.5672C186.171 78.3253 185.218 77.9593 184.461 77.4693C183.709 76.9861 183.148 76.424 182.778 75.7829C182.408 75.1419 182.221 74.4697 182.218 73.7666L185.597 74.0154C185.643 74.2922 185.751 74.5646 185.921 74.8326C186.091 75.1007 186.34 75.3388 186.668 75.5471C187 75.762 187.425 75.9239 187.942 76.0326C188.715 76.1951 189.391 76.1399 189.971 75.8671C190.556 75.6009 190.94 75.0286 191.125 74.15L191.618 71.8064L191.468 71.7748C191.237 72.098 190.933 72.3853 190.555 72.6367C190.177 72.8882 189.722 73.0626 189.191 73.1599C188.659 73.2572 188.054 73.2345 187.376 73.0919C186.414 72.8896 185.585 72.4831 184.889 71.8723C184.2 71.257 183.719 70.4388 183.446 69.4176C183.179 68.392 183.195 67.1703 183.493 65.7524C183.799 64.3012 184.29 63.1388 184.967 62.2651C185.644 61.3914 186.426 60.7951 187.311 60.4762C188.203 60.1585 189.118 60.0984 190.058 60.296C190.775 60.4468 191.35 60.6954 191.782 61.0417C192.216 61.3825 192.542 61.7646 192.76 62.188C192.986 62.607 193.143 63.0058 193.232 63.3844L193.365 63.4125L193.817 61.2607L197.345 62.0024L194.626 74.9383C194.397 76.0282 193.938 76.8839 193.25 77.5056C192.562 78.1274 191.706 78.5223 190.684 78.6906C189.666 78.8656 188.545 78.8244 187.322 78.5672ZM189.063 70.6597C189.636 70.7801 190.149 70.74 190.604 70.5394C191.065 70.3345 191.457 69.9873 191.781 69.498C192.111 69.0042 192.355 68.382 192.513 67.6314C192.671 66.8807 192.702 66.208 192.606 65.6131C192.512 65.0126 192.297 64.5174 191.961 64.1274C191.625 63.7375 191.17 63.4823 190.598 63.3618C190.014 63.2391 189.488 63.2941 189.021 63.5269C188.556 63.7541 188.161 64.1241 187.839 64.6368C187.516 65.1496 187.278 65.7702 187.125 66.4986C186.97 67.2381 186.938 67.8991 187.03 68.4817C187.129 69.0599 187.345 69.5379 187.678 69.9156C188.018 70.2889 188.479 70.5369 189.063 70.6597Z" fill="#1CC26F"/>
<path d="M208.806 71.796L205.774 78.7302L202.448 77.2755L207.693 65.2813L210.863 66.6676L209.938 68.7838L210.078 68.8453C210.649 68.2638 211.335 67.9066 212.137 67.7737C212.942 67.6357 213.789 67.7612 214.679 68.1505C215.512 68.5148 216.159 69.0145 216.619 69.6498C217.079 70.2851 217.333 71.0163 217.381 71.8433C217.431 72.6651 217.252 73.5419 216.844 74.4738L213.505 82.1107L210.178 80.6561L213.258 73.6126C213.584 72.8808 213.647 72.2262 213.447 71.6488C213.249 71.0661 212.817 70.6291 212.151 70.3377C211.703 70.142 211.265 70.0653 210.838 70.1076C210.415 70.1523 210.027 70.3173 209.672 70.6027C209.326 70.8851 209.037 71.2829 208.806 71.796Z" fill="#1CC26F"/>
<path d="M224.709 89.3821C223.607 88.6083 222.815 87.7189 222.334 86.7142C221.86 85.708 221.698 84.6433 221.848 83.5198C222.002 82.3918 222.475 81.2628 223.269 80.1329C224.043 79.0309 224.936 78.2139 225.948 77.682C226.96 77.1501 228.018 76.9243 229.121 77.0046C230.229 77.0882 231.308 77.499 232.359 78.237C233.066 78.7333 233.644 79.3093 234.093 79.9649C234.55 80.6191 234.848 81.3317 234.987 82.1027C235.13 82.877 235.09 83.6957 234.866 84.5589C234.645 85.4173 234.214 86.3022 233.574 87.2136L233.001 88.0296L223.955 81.6769L225.248 79.8356L231.497 84.2242C231.798 83.7964 231.971 83.3522 232.017 82.8914C232.063 82.4307 231.986 81.9914 231.786 81.5736C231.595 81.1543 231.283 80.7929 230.85 80.4892C230.399 80.1725 229.926 79.9963 229.43 79.9606C228.942 79.9236 228.478 80.0109 228.038 80.2225C227.601 80.4294 227.232 80.7428 226.93 81.1627L225.701 82.9133C225.328 83.4434 225.104 83.97 225.029 84.4931C224.958 85.0194 225.03 85.5145 225.246 85.9785C225.461 86.4424 225.818 86.8491 226.316 87.1985C226.646 87.4303 226.981 87.596 227.32 87.6957C227.66 87.7954 227.993 87.8208 228.319 87.7719C228.645 87.7231 228.953 87.5997 229.245 87.4019L231.866 89.513C231.263 90.0753 230.572 90.4511 229.793 90.6403C229.022 90.8281 228.201 90.8208 227.33 90.6184C226.466 90.4146 225.593 90.0025 224.709 89.3821Z" fill="#1CC26F"/>
<path d="M235.429 97.6583L244.703 88.4186L247.187 90.9121L245.569 92.5242L245.665 92.6208C246.409 92.2164 247.127 92.0671 247.818 92.1728C248.513 92.2745 249.119 92.585 249.636 93.1042C249.764 93.233 249.895 93.3799 250.027 93.5449C250.159 93.7098 250.267 93.8627 250.351 94.0035L248.069 96.2773C247.985 96.1205 247.851 95.9213 247.667 95.6799C247.482 95.4386 247.302 95.2293 247.125 95.0522C246.748 94.6738 246.329 94.418 245.867 94.2845C245.413 94.1511 244.955 94.1422 244.493 94.2579C244.035 94.3776 243.617 94.6259 243.238 95.0029L237.992 100.23L235.429 97.6583Z" fill="#1CC26F"/>
<path d="M246.41 110.254C246.072 109.804 245.941 109.298 246.017 108.737C246.101 108.177 246.368 107.728 246.818 107.39C247.264 107.056 247.765 106.929 248.322 107.008C248.882 107.093 249.331 107.36 249.668 107.81C249.996 108.246 250.123 108.747 250.05 109.313C249.978 109.879 249.719 110.329 249.273 110.663C248.973 110.888 248.64 111.017 248.274 111.05C247.916 111.084 247.57 111.035 247.236 110.902C246.907 110.765 246.631 110.55 246.41 110.254Z" fill="#1CC26F"/>
<path d="M259.135 132.71C258.781 131.781 258.7 130.848 258.891 129.912C259.089 128.979 259.572 128.115 260.339 127.318C261.113 126.525 262.182 125.869 263.547 125.35C264.949 124.817 266.201 124.599 267.302 124.697C268.408 124.792 269.335 125.127 270.082 125.7C270.836 126.276 271.384 127.013 271.725 127.91C271.986 128.595 272.086 129.211 272.026 129.756C271.974 130.305 271.828 130.786 271.59 131.199C271.36 131.615 271.108 131.96 270.835 132.234L270.875 132.337L277.008 130.004L278.296 133.389L261.983 139.596L260.71 136.25L262.669 135.505L262.615 135.362C262.214 135.332 261.791 135.234 261.345 135.069C260.907 134.908 260.491 134.638 260.098 134.258C259.706 133.885 259.385 133.368 259.135 132.71ZM262.244 132.758C262.452 133.305 262.777 133.71 263.218 133.974C263.666 134.241 264.199 134.373 264.817 134.368C265.438 134.369 266.112 134.232 266.839 133.955C267.567 133.678 268.161 133.337 268.62 132.931C269.08 132.525 269.383 132.075 269.529 131.582C269.676 131.088 269.645 130.568 269.437 130.021C269.225 129.463 268.895 129.051 268.447 128.784C267.998 128.517 267.469 128.387 266.858 128.394C266.247 128.402 265.588 128.54 264.882 128.809C264.17 129.08 263.578 129.417 263.106 129.822C262.641 130.23 262.326 130.681 262.162 131.175C262.004 131.673 262.032 132.2 262.244 132.758Z" fill="#1CC26F"/>
<path d="M264.821 153.442C264.609 152.112 264.695 150.924 265.08 149.879C265.472 148.838 266.123 147.98 267.034 147.305C267.95 146.629 269.089 146.182 270.453 145.964C271.782 145.752 272.991 145.823 274.078 146.179C275.164 146.534 276.063 147.136 276.774 147.983C277.486 148.836 277.943 149.896 278.146 151.164C278.282 152.017 278.272 152.833 278.114 153.612C277.964 154.396 277.66 155.106 277.204 155.743C276.748 156.385 276.133 156.927 275.357 157.367C274.588 157.807 273.653 158.114 272.553 158.29L271.569 158.448L269.823 147.532L272.045 147.177L273.251 154.718C273.767 154.635 274.206 154.45 274.569 154.162C274.931 153.873 275.193 153.512 275.353 153.078C275.521 152.649 275.563 152.173 275.479 151.651C275.392 151.107 275.189 150.645 274.869 150.264C274.556 149.888 274.17 149.616 273.711 149.448C273.259 149.279 272.776 149.232 272.265 149.308L270.153 149.646C269.513 149.748 268.979 149.954 268.551 150.265C268.124 150.58 267.819 150.977 267.637 151.455C267.454 151.933 267.411 152.472 267.507 153.073C267.571 153.471 267.685 153.827 267.85 154.14C268.015 154.453 268.229 154.709 268.491 154.909C268.753 155.109 269.057 155.244 269.402 155.316L269.713 158.667C268.89 158.626 268.139 158.392 267.461 157.965C266.789 157.543 266.222 156.949 265.76 156.183C265.305 155.421 264.992 154.508 264.821 153.442Z" fill="#1CC26F"/>
<path d="M279.049 179.57L266.159 174.455L266.329 170.368L279.598 166.337L279.439 170.169L269.968 172.497L269.962 172.634L279.208 175.73L279.049 179.57Z" fill="#1CC26F"/>
<path d="M263.258 191.969C263.58 190.662 264.122 189.602 264.884 188.789C265.65 187.982 266.584 187.446 267.685 187.179C268.792 186.913 270.016 186.945 271.357 187.275C272.664 187.597 273.749 188.134 274.612 188.884C275.474 189.635 276.068 190.539 276.393 191.596C276.716 192.659 276.724 193.814 276.417 195.061C276.211 195.899 275.884 196.647 275.435 197.303C274.991 197.966 274.435 198.502 273.767 198.911C273.097 199.325 272.319 199.584 271.434 199.688C270.553 199.793 269.573 199.712 268.491 199.446L267.523 199.208L270.166 188.474L272.351 189.012L270.525 196.427C271.032 196.552 271.509 196.553 271.955 196.428C272.401 196.304 272.783 196.073 273.1 195.736C273.421 195.405 273.645 194.984 273.772 194.471C273.903 193.935 273.896 193.43 273.75 192.955C273.607 192.487 273.358 192.087 273.001 191.753C272.65 191.421 272.224 191.19 271.723 191.061L269.646 190.549C269.017 190.395 268.445 190.377 267.93 190.496C267.414 190.62 266.979 190.867 266.625 191.236C266.27 191.605 266.021 192.085 265.875 192.675C265.779 193.067 265.746 193.439 265.776 193.792C265.806 194.145 265.903 194.464 266.066 194.75C266.23 195.036 266.457 195.279 266.747 195.479L265.729 198.687C264.986 198.328 264.386 197.821 263.927 197.164C263.473 196.513 263.182 195.746 263.055 194.86C262.932 193.981 263 193.018 263.258 191.969Z" fill="#1CC26F"/>
<path d="M274.022 215.142L257.955 208.322L259.374 204.98L275.441 211.8L274.022 215.142Z" fill="#1CC26F"/>
<path d="M251.228 220.4C251.932 219.28 252.78 218.46 253.77 217.942C254.763 217.432 255.826 217.225 256.96 217.321C258.1 217.42 259.237 217.826 260.372 218.54C261.516 219.26 262.378 220.11 262.956 221.091C263.538 222.075 263.812 223.123 263.777 224.236C263.744 225.356 263.374 226.476 262.67 227.597C261.965 228.717 261.116 229.533 260.124 230.043C259.134 230.561 258.069 230.771 256.93 230.672C255.795 230.576 254.656 230.168 253.511 229.448C252.376 228.734 251.517 227.885 250.935 226.901C250.357 225.92 250.084 224.87 250.118 223.75C250.153 222.637 250.523 221.521 251.228 220.4ZM253.599 221.912C253.279 222.422 253.155 222.938 253.229 223.461C253.308 223.987 253.545 224.496 253.941 224.986C254.334 225.482 254.853 225.932 255.497 226.338C256.142 226.743 256.773 227.016 257.39 227.155C258.003 227.3 258.565 227.294 259.073 227.137C259.581 226.98 259.995 226.646 260.316 226.136C260.64 225.622 260.765 225.097 260.693 224.561C260.617 224.03 260.383 223.517 259.99 223.022C259.593 222.531 259.073 222.083 258.429 221.677C257.784 221.272 257.155 220.997 256.541 220.853C255.924 220.713 255.36 220.724 254.849 220.886C254.339 221.055 253.923 221.397 253.599 221.912Z" fill="#1CC26F"/>
<path d="M240.109 228.21L253.076 240.694L250.593 243.272L249.009 241.747L248.897 241.864C249.04 242.223 249.138 242.637 249.191 243.106C249.245 243.583 249.19 244.083 249.027 244.604C248.864 245.134 248.529 245.662 248.02 246.19C247.358 246.878 246.567 247.339 245.648 247.573C244.732 247.812 243.746 247.758 242.691 247.413C241.64 247.071 240.574 246.38 239.493 245.339C238.441 244.327 237.717 243.302 237.319 242.264C236.922 241.235 236.817 240.251 237.004 239.311C237.191 238.379 237.63 237.555 238.319 236.839C238.808 236.331 239.308 235.98 239.818 235.786C240.325 235.595 240.814 235.51 241.284 235.529C241.759 235.552 242.184 235.63 242.56 235.764L242.637 235.684L237.591 230.825L240.109 228.21ZM245.895 238.714C245.335 238.174 244.771 237.781 244.203 237.535C243.636 237.288 243.094 237.2 242.577 237.27C242.064 237.344 241.605 237.592 241.199 238.014C240.789 238.439 240.559 238.912 240.508 239.431C240.462 239.955 240.575 240.493 240.846 241.046C241.118 241.608 241.528 242.152 242.077 242.681C242.621 243.205 243.173 243.59 243.732 243.837C244.291 244.083 244.83 244.171 245.347 244.101C245.864 244.031 246.329 243.781 246.743 243.352C247.153 242.926 247.387 242.457 247.445 241.946C247.5 241.438 247.396 240.908 247.132 240.354C246.868 239.801 246.456 239.254 245.895 238.714Z" fill="#1CC26F"/>
<path d="M223.822 248.93C224.934 248.17 226.045 247.742 227.155 247.644C228.264 247.554 229.317 247.777 230.316 248.313C231.318 248.853 232.209 249.693 232.988 250.833C233.747 251.945 234.198 253.068 234.34 254.203C234.482 255.337 234.322 256.407 233.859 257.411C233.391 258.419 232.627 259.285 231.567 260.009C230.854 260.497 230.112 260.835 229.34 261.025C228.567 261.223 227.795 261.251 227.024 261.111C226.249 260.973 225.497 260.647 224.768 260.134C224.042 259.625 223.364 258.911 222.736 257.992L222.174 257.168L231.301 250.932L232.57 252.79L226.265 257.098C226.56 257.53 226.915 257.848 227.33 258.053C227.745 258.258 228.184 258.34 228.645 258.3C229.105 258.268 229.553 258.103 229.989 257.805C230.444 257.494 230.775 257.113 230.983 256.662C231.189 256.218 231.271 255.753 231.227 255.266C231.187 254.785 231.024 254.329 230.737 253.899L229.53 252.132C229.164 251.597 228.75 251.203 228.287 250.948C227.819 250.696 227.33 250.59 226.82 250.629C226.31 250.668 225.804 250.859 225.302 251.202C224.969 251.429 224.696 251.684 224.483 251.967C224.271 252.25 224.13 252.553 224.061 252.875C223.992 253.197 223.999 253.53 224.082 253.872L221.184 255.584C220.87 254.821 220.761 254.043 220.857 253.247C220.952 252.46 221.248 251.694 221.744 250.949C222.238 250.212 222.931 249.539 223.822 248.93Z" fill="#1CC26F"/>
<path d="M212.306 256.057L217.696 267.986L214.488 269.436L213.548 267.354L213.424 267.41C213.541 268.249 213.428 268.973 213.086 269.583C212.747 270.197 212.243 270.656 211.575 270.958C211.41 271.032 211.226 271.103 211.025 271.169C210.824 271.234 210.643 271.282 210.482 271.311L209.155 268.375C209.332 268.352 209.565 268.296 209.856 268.208C210.147 268.121 210.406 268.025 210.634 267.922C211.121 267.702 211.508 267.4 211.795 267.014C212.08 266.637 212.249 266.211 212.303 265.737C212.352 265.266 212.267 264.788 212.047 264.301L208.997 257.551L212.306 256.057Z" fill="#1CC26F"/>
<path d="M196.654 261.909C197.194 261.751 197.713 261.806 198.212 262.075C198.707 262.35 199.034 262.758 199.191 263.298C199.348 263.833 199.291 264.346 199.02 264.84C198.745 265.335 198.337 265.661 197.797 265.819C197.274 265.972 196.76 265.915 196.255 265.648C195.751 265.381 195.421 264.98 195.265 264.446C195.16 264.086 195.156 263.729 195.254 263.375C195.347 263.028 195.515 262.721 195.757 262.455C196.001 262.194 196.3 262.012 196.654 261.909Z" fill="#1CC26F"/>
<path d="M171.158 265.927C172.153 265.923 173.054 266.175 173.863 266.683C174.667 267.196 175.306 267.952 175.782 268.95C176.253 269.953 176.491 271.185 176.497 272.646C176.504 274.146 176.268 275.394 175.789 276.39C175.311 277.392 174.672 278.142 173.873 278.64C173.068 279.144 172.186 279.397 171.226 279.402C170.493 279.405 169.881 279.282 169.392 279.035C168.896 278.792 168.497 278.487 168.194 278.119C167.886 277.757 167.652 277.4 167.491 277.049L167.38 277.049L167.409 283.611L163.787 283.627L163.711 266.173L167.29 266.157L167.299 268.254L167.453 268.253C167.621 267.889 167.861 267.527 168.172 267.168C168.478 266.814 168.877 266.52 169.37 266.285C169.858 266.05 170.454 265.93 171.158 265.927ZM170.02 268.822C169.435 268.824 168.942 268.985 168.54 269.305C168.132 269.631 167.821 270.084 167.608 270.664C167.389 271.245 167.281 271.924 167.284 272.703C167.288 273.481 167.399 274.157 167.617 274.73C167.836 275.303 168.15 275.745 168.56 276.055C168.971 276.366 169.469 276.52 170.054 276.518C170.651 276.515 171.153 276.351 171.56 276.025C171.968 275.699 172.276 275.249 172.483 274.675C172.691 274.1 172.793 273.435 172.79 272.679C172.787 271.917 172.679 271.245 172.466 270.66C172.248 270.082 171.936 269.629 171.531 269.301C171.121 268.979 170.617 268.819 170.02 268.822Z" fill="#1CC26F"/>
<path d="M149.801 263.974C151.098 264.237 152.164 264.741 152.998 265.485C153.826 266.233 154.395 267.155 154.706 268.25C155.016 269.351 155.037 270.558 154.77 271.872C154.5 273.198 154.008 274.304 153.295 275.19C152.58 276.083 151.696 276.709 150.643 277.069C149.583 277.433 148.404 277.483 147.107 277.22C145.81 276.956 144.747 276.45 143.919 275.702C143.085 274.958 142.513 274.036 142.203 272.935C141.893 271.839 141.872 270.629 142.142 269.304C142.409 267.99 142.9 266.887 143.615 265.994C144.329 265.108 145.216 264.482 146.275 264.118C147.328 263.758 148.504 263.71 149.801 263.974ZM149.224 266.726C148.633 266.606 148.107 266.673 147.643 266.927C147.179 267.186 146.787 267.588 146.468 268.131C146.143 268.674 145.905 269.319 145.753 270.065C145.601 270.811 145.569 271.497 145.656 272.124C145.737 272.749 145.941 273.272 146.268 273.692C146.594 274.112 147.052 274.382 147.642 274.502C148.238 274.623 148.774 274.555 149.249 274.298C149.719 274.04 150.117 273.64 150.441 273.097C150.761 272.553 150.996 271.908 151.148 271.162C151.3 270.416 151.335 269.73 151.253 269.105C151.166 268.478 150.957 267.954 150.625 267.533C150.287 267.116 149.819 266.848 149.224 266.726Z" fill="#1CC26F"/>
<path d="M131.238 258.242C132.478 258.767 133.439 259.47 134.121 260.351C134.796 261.235 135.177 262.243 135.266 263.372C135.353 264.508 135.128 265.711 134.589 266.982C134.064 268.222 133.362 269.208 132.484 269.941C131.606 270.674 130.62 271.117 129.524 271.27C128.424 271.421 127.282 271.246 126.1 270.745C125.305 270.408 124.619 269.966 124.042 269.42C123.458 268.876 123.017 268.242 122.719 267.517C122.416 266.79 122.283 265.981 122.321 265.09C122.357 264.205 122.592 263.249 123.026 262.224L123.415 261.305L133.594 265.617L132.716 267.688L125.685 264.71C125.481 265.192 125.405 265.662 125.457 266.122C125.509 266.582 125.676 266.996 125.959 267.362C126.234 267.732 126.615 268.02 127.102 268.226C127.61 268.441 128.109 268.514 128.601 268.445C129.086 268.378 129.521 268.196 129.907 267.896C130.291 267.602 130.586 267.218 130.793 266.744L131.628 264.774C131.88 264.178 131.989 263.616 131.953 263.089C131.912 262.559 131.737 262.09 131.429 261.682C131.12 261.274 130.686 260.951 130.126 260.714C129.755 260.557 129.393 260.465 129.04 260.439C128.687 260.413 128.356 260.458 128.048 260.574C127.739 260.69 127.463 260.876 127.22 261.13L124.214 259.617C124.686 258.94 125.282 258.428 126.004 258.079C126.718 257.734 127.522 257.568 128.416 257.583C129.304 257.601 130.244 257.821 131.238 258.242Z" fill="#1CC26F"/>
<path d="M119.019 252.402L111.893 263.383L108.94 261.467L110.184 259.551L110.069 259.476C109.427 260.028 108.757 260.325 108.059 260.366C107.358 260.413 106.701 260.237 106.086 259.838C105.933 259.739 105.775 259.622 105.611 259.489C105.447 259.355 105.309 259.229 105.197 259.109L106.951 256.406C107.066 256.542 107.239 256.709 107.47 256.906C107.701 257.103 107.922 257.27 108.131 257.406C108.579 257.697 109.043 257.859 109.523 257.892C109.994 257.927 110.444 257.84 110.872 257.63C111.294 257.416 111.651 257.086 111.942 256.638L115.974 250.425L119.019 252.402Z" fill="#1CC26F"/>
<path d="M95.5118 232.221C96.3749 233.224 96.9081 234.276 97.1113 235.375C97.3065 236.474 97.191 237.551 96.765 238.606C96.3346 239.666 95.611 240.633 94.5942 241.507C93.5689 242.388 92.5023 242.961 91.3947 243.224C90.2827 243.49 89.2004 243.443 88.1479 243.082C87.0873 242.72 86.1255 242.037 85.2624 241.033C84.3993 240.029 83.8702 238.978 83.675 237.879C83.4718 236.78 83.5854 235.701 84.0158 234.642C84.4418 233.586 85.1676 232.617 86.1929 231.736C87.2097 230.861 88.2741 230.291 89.3861 230.024C90.4937 229.761 91.5778 229.811 92.6384 230.173C93.6909 230.534 94.6488 231.217 95.5118 232.221ZM93.3681 234.041C92.9755 233.585 92.5184 233.314 91.9969 233.231C91.4711 233.151 90.9153 233.228 90.3296 233.462C89.7402 233.691 89.1568 234.054 88.5795 234.551C88.0022 235.047 87.5559 235.569 87.2405 236.118C86.9215 236.662 86.7621 237.2 86.7623 237.731C86.7625 238.263 86.9589 238.758 87.3516 239.214C87.7479 239.675 88.2127 239.95 88.7459 240.039C89.2755 240.123 89.8349 240.05 90.4244 239.821C91.0101 239.587 91.5916 239.222 92.1689 238.725C92.7462 238.229 93.1944 237.709 93.5134 237.165C93.8287 236.616 93.9844 236.074 93.9805 235.538C93.9686 235.001 93.7645 234.502 93.3681 234.041Z" fill="#1CC26F"/>
<path d="M72.2717 222.145L74.6177 220.754L78.7381 227.704L76.3921 229.095L72.2717 222.145ZM86.7096 220.828L74.6352 227.986C73.819 228.47 73.0479 228.712 72.3219 228.714C71.5931 228.71 70.9291 228.509 70.3299 228.111C69.7308 227.713 69.2212 227.16 68.801 226.451C68.5171 225.972 68.2944 225.513 68.133 225.074C67.9687 224.63 67.8579 224.292 67.8007 224.062L70.477 223.228C70.5103 223.374 70.5635 223.547 70.6365 223.748C70.7066 223.944 70.7967 224.135 70.9068 224.321C71.1792 224.781 71.4765 225.037 71.7987 225.09C72.1161 225.147 72.4654 225.062 72.8466 224.836L84.8624 217.712L86.7096 220.828Z" fill="#1CC26F"/>
<path d="M61.8425 195.558L64.4672 194.817L66.6091 202.404L63.9844 203.145L61.8425 195.558ZM60.4798 202.275L59.4933 198.781L71.2388 195.465C71.5614 195.374 71.7991 195.254 71.9517 195.104C72.0989 194.956 72.1833 194.785 72.205 194.59C72.2252 194.389 72.202 194.171 72.1357 193.936C72.0894 193.772 72.0294 193.612 71.9557 193.456C71.8766 193.301 71.8165 193.182 71.7754 193.099L74.2203 191.816C74.3244 191.975 74.4567 192.204 74.6174 192.501C74.7835 192.796 74.9388 193.169 75.0833 193.618C75.3538 194.451 75.4502 195.22 75.3722 195.927C75.2928 196.629 75.0317 197.231 74.5892 197.734C74.1467 198.236 73.5118 198.602 72.6846 198.829L60.4798 202.275Z" fill="#1CC26F"/>
<path d="M64.9073 181.743L72.4375 180.986L72.8005 184.599L55.4335 186.344L55.0807 182.833L61.7205 182.166L61.7052 182.013C60.9068 181.796 60.257 181.382 59.7558 180.77C59.2489 180.159 58.9458 179.358 58.8464 178.369C58.7555 177.464 58.8741 176.656 59.2022 175.943C59.5241 175.226 60.0338 174.643 60.7312 174.196C61.4224 173.744 62.2771 173.47 63.2953 173.373L71.5888 172.54L71.9518 176.152L64.3028 176.921C63.4995 176.996 62.8952 177.262 62.4901 177.72C62.0844 178.172 61.9184 178.765 61.9923 179.5C62.0417 179.992 62.1901 180.417 62.4373 180.775C62.684 181.127 63.0188 181.39 63.4418 181.565C63.8585 181.734 64.347 181.793 64.9073 181.743Z" fill="#1CC26F"/>
<path d="M71.7595 165.077L58.692 164.294L58.9091 160.67L71.9766 161.453L71.7595 165.077ZM57.1166 162.373C57.0843 162.911 56.878 163.363 56.4975 163.727C56.1118 164.085 55.6665 164.249 55.1617 164.219C54.6626 164.189 54.2458 163.974 53.9113 163.572C53.5714 163.165 53.4176 162.692 53.4499 162.153C53.4822 161.614 53.6912 161.165 54.0769 160.807C54.4574 160.443 54.8971 160.276 55.3962 160.306C55.901 160.336 56.3233 160.555 56.6632 160.962C56.9978 161.364 57.1489 161.834 57.1166 162.373Z" fill="#1CC26F"/>
<path d="M66.1359 148.342L73.5219 149.992L72.7302 153.535L59.9543 150.681L60.7089 147.304L62.963 147.807L62.9965 147.658C62.3166 147.209 61.8348 146.603 61.5509 145.841C61.2616 145.078 61.2228 144.222 61.4347 143.274C61.633 142.387 61.9999 141.657 62.5355 141.084C63.0711 140.51 63.7402 140.121 64.5429 139.917C65.34 139.71 66.2348 139.718 67.2274 139.94L75.362 141.758L74.5702 145.301L67.0677 143.625C66.2871 143.444 65.6325 143.508 65.104 143.815C64.57 144.12 64.2236 144.628 64.065 145.338C63.9585 145.815 63.9669 146.259 64.0903 146.671C64.2149 147.077 64.4511 147.427 64.799 147.72C65.1425 148.006 65.5882 148.213 66.1359 148.342Z" fill="#1CC26F"/>
<path d="M84.8094 131.475C84.3246 132.547 83.7614 133.399 83.1197 134.031C82.4855 134.661 81.8155 135.088 81.1096 135.311C80.4037 135.534 79.7072 135.571 79.0199 135.423L79.9924 132.177C80.2727 132.192 80.562 132.145 80.8604 132.037C81.1588 131.928 81.4451 131.737 81.7192 131.462C82.0009 131.184 82.2506 130.804 82.4684 130.322C82.7939 129.603 82.8861 128.931 82.7448 128.305C82.6111 127.677 82.1353 127.178 81.3174 126.808L79.1354 125.821L79.0721 125.961C79.3379 126.256 79.5527 126.615 79.7166 127.038C79.8806 127.462 79.9526 127.943 79.9329 128.483C79.9132 129.023 79.7605 129.609 79.4748 130.24C79.0696 131.136 78.4937 131.858 77.747 132.405C76.9975 132.946 76.0947 133.239 75.0386 133.285C73.9797 133.323 72.7902 133.044 71.4702 132.447C70.1191 131.836 69.0901 131.105 68.3832 130.255C67.6763 129.405 67.2628 128.514 67.1427 127.58C67.0248 126.641 67.1638 125.734 67.5596 124.859C67.8617 124.192 68.2285 123.684 68.6601 123.337C69.0864 122.987 69.5299 122.751 69.9905 122.629C70.4483 122.499 70.8716 122.432 71.2605 122.427L71.3167 122.303L69.3133 121.396L70.7992 118.112L82.8429 123.56C83.8575 124.019 84.5941 124.652 85.0526 125.458C85.5111 126.264 85.7121 127.184 85.6556 128.219C85.6067 129.251 85.3246 130.336 84.8094 131.475ZM77.4642 128.068C77.7054 127.535 77.7771 127.025 77.6794 126.538C77.5788 126.043 77.3246 125.585 76.9166 125.164C76.5058 124.735 75.9509 124.362 75.2521 124.046C74.5532 123.73 73.9031 123.554 73.3016 123.519C72.6949 123.481 72.1649 123.585 71.7116 123.828C71.2582 124.072 70.9109 124.461 70.6697 124.994C70.4238 125.538 70.3641 126.063 70.4906 126.569C70.6118 127.073 70.888 127.537 71.319 127.963C71.75 128.389 72.3046 128.755 72.9828 129.062C73.6713 129.373 74.3099 129.547 74.8987 129.583C75.4847 129.611 75.998 129.503 76.4386 129.26C76.8764 129.009 77.2183 128.611 77.4642 128.068Z" fill="#1CC26F"/>
<path d="M85.6268 102.125L83.8483 104.941C83.5847 104.821 83.3058 104.77 83.0118 104.789C82.7132 104.805 82.4188 104.898 82.1288 105.067C81.8374 105.228 81.5687 105.479 81.3228 105.82C80.9937 106.276 80.813 106.731 80.7805 107.184C80.7435 107.633 80.8839 107.973 81.2019 108.202C81.4553 108.385 81.7427 108.438 82.0641 108.362C82.3854 108.285 82.7769 108.039 83.2386 107.622L85.0116 105.98C85.9681 105.1 86.8642 104.577 87.6998 104.409C88.5355 104.241 89.3358 104.433 90.1008 104.984C90.7966 105.486 91.2593 106.132 91.4888 106.921C91.7217 107.705 91.7297 108.559 91.5128 109.481C91.2945 110.396 90.8531 111.314 90.1883 112.235C89.1746 113.641 88.0743 114.549 86.8875 114.961C85.6994 115.366 84.5469 115.273 83.43 114.685L85.3669 111.679C85.8586 111.901 86.3387 111.925 86.8071 111.751C87.2709 111.574 87.6923 111.223 88.0712 110.698C88.4435 110.182 88.6435 109.695 88.6714 109.239C88.698 108.775 88.5539 108.426 88.2393 108.192C87.9687 108.004 87.6683 107.959 87.3383 108.057C87.0036 108.152 86.6241 108.396 86.1995 108.791L84.507 110.365C83.5518 111.253 82.6356 111.765 81.7585 111.903C80.8847 112.037 80.0515 111.817 79.2589 111.246C78.5769 110.754 78.1223 110.146 77.8951 109.421C77.6712 108.693 77.6683 107.895 77.8862 107.03C78.1075 106.16 78.5456 105.271 79.2003 104.363C80.1675 103.022 81.2121 102.171 82.334 101.81C83.4592 101.445 84.5568 101.55 85.6268 102.125Z" fill="#1CC26F"/>
<path d="M100.022 100.546C99.6244 100.944 99.1424 101.145 98.5759 101.149C98.0094 101.145 97.5272 100.945 97.1292 100.547C96.7352 100.154 96.5381 99.6758 96.5378 99.1134C96.5415 98.5469 96.7421 98.0646 97.1396 97.6667C97.5251 97.2808 98.0031 97.0836 98.5736 97.0753C99.1441 97.0669 99.6263 97.2595 100.02 97.653C100.286 97.918 100.461 98.2293 100.545 98.5868C100.63 98.9363 100.63 99.2859 100.546 99.6354C100.457 99.981 100.283 100.284 100.022 100.546Z" fill="#1CC26F"/>
</svg>
