<svg width="151" height="151" viewBox="0 0 151 151" fill="none" xmlns="http://www.w3.org/2000/svg">
<path d="M13.1073 113.735C11.8248 111.436 10.2761 108.468 9.01794 105.879C10.9698 110.145 11.3804 110.902 13.1073 113.735Z" fill="#1CC26F"/>
<path d="M37.6061 138.245C37.7486 138.33 37.8929 138.416 38.0411 138.5L38.2417 138.607C37.8517 138.373 37.4917 138.155 37.1542 137.947L37.6061 138.245Z" fill="#1CC26F"/>
<path d="M19.7823 122.986L19.8067 123.013L19.7692 122.968C19.7731 122.974 19.7775 122.981 19.7823 122.986Z" fill="#1CC26F"/>
<path d="M48.8092 143.831L47.8492 143.435C48.168 143.565 48.4867 143.698 48.8092 143.831Z" fill="#1CC26F"/>
<path d="M13.818 114.843C13.9436 115.031 14.0711 115.218 14.193 115.406L13.8949 114.956L13.818 114.843Z" fill="#1CC26F"/>
<path d="M13.1167 113.754L13.141 113.791L13.1073 113.735L13.1167 113.754Z" fill="#1CC26F"/>
<path d="M19.7636 122.968C18.0386 120.768 15.9049 117.87 14.2024 115.404C17.0824 119.69 17.6843 120.534 19.7636 122.968Z" fill="#1CC26F"/>
<path d="M13.818 114.843L13.4843 114.352C13.5949 114.515 13.698 114.68 13.818 114.843Z" fill="#1CC26F"/>
<path d="M48.9686 143.891H48.9911L48.8036 143.818L48.9686 143.891Z" fill="#1CC26F"/>
<path d="M37.1543 137.947C35.5999 136.925 34.5049 136.207 33.6499 135.63C34.7824 136.44 35.7836 137.105 37.1543 137.947Z" fill="#1CC26F"/>
<path d="M33.6573 135.63C32.4798 134.78 31.1655 133.771 29.1573 132.226C30.5918 133.445 32.0942 134.581 33.6573 135.63Z" fill="#1CC26F"/>
<path d="M44.0017 141.71C42.8767 141.159 41.6148 140.486 39.571 139.402C41.5323 140.501 42.4342 140.985 44.0017 141.71Z" fill="#1CC26F"/>
<path d="M38.5323 138.795L38.2379 138.624L39.5729 139.402L38.7798 138.93L38.5323 138.795Z" fill="#1CC26F"/>
<path d="M20.2305 123.517L20.4386 123.757L20.2623 123.551L20.2305 123.517Z" fill="#1CC26F"/>
<path d="M27.6574 130.961L27.918 131.186C27.9874 131.246 28.0605 131.306 28.1355 131.373L27.6405 130.951L27.6574 130.961Z" fill="#1CC26F"/>
<path d="M8.46104 104.713C8.39167 104.568 8.32417 104.422 8.25854 104.281C8.31854 104.426 8.38792 104.568 8.46104 104.713Z" fill="#1CC26F"/>
<path d="M28.4486 131.643L29.1442 132.225L28.6886 131.84L28.4486 131.643Z" fill="#1CC26F"/>
<path d="M4.70736 57.8621C4.69798 57.8958 4.69236 57.9296 4.68298 57.9633C4.72611 57.8096 4.77111 57.6502 4.81611 57.4871L4.70736 57.8621Z" fill="#1CC26F"/>
<path d="M2.75549 69.6558C2.77612 69.4177 2.80049 69.1796 2.82487 68.9414C2.80799 69.0783 2.79112 69.2133 2.77424 69.3427C2.75737 69.4721 2.75924 69.5508 2.75549 69.6558Z" fill="#1CC26F"/>
<path d="M4.3061 92.0283C3.82797 89.4446 3.28235 86.1089 2.90735 83.2908C3.14547 85.6608 3.53172 88.0252 4.3061 92.0283Z" fill="#1CC26F"/>
<path d="M8.46106 104.713C8.63731 105.088 8.82481 105.48 9.02356 105.879C8.89793 105.601 8.76293 105.316 8.62231 105.001C8.56231 104.906 8.50981 104.808 8.46106 104.713Z" fill="#1CC26F"/>
<path d="M5.11792 56.4446C5.47042 55.2446 5.93729 53.7221 6.59167 51.5902C6.09479 53.0114 5.58292 54.8264 5.11792 56.4446Z" fill="#1CC26F"/>
<path d="M2.74988 81.9558C2.8005 82.3852 2.85488 82.8352 2.91488 83.2983C2.883 82.9627 2.853 82.6252 2.82488 82.2839C2.8005 82.1696 2.77613 82.0608 2.74988 81.9558Z" fill="#1CC26F"/>
<path d="M26.2418 21.8358L26.1293 21.9464C26.2118 21.8714 26.2924 21.7927 26.3768 21.7177L26.2418 21.8358Z" fill="#1CC26F"/>
<path d="M2.4967 75.8471C2.4967 76.6608 2.50983 77.4733 2.53608 78.2846L2.69358 81.2246C2.7217 81.4289 2.75358 81.6202 2.7892 81.8058C2.66733 80.1296 2.6017 78.2902 2.49858 75.7608C2.49858 75.7871 2.4967 75.8171 2.4967 75.8471Z" fill="#1CC26F"/>
<path d="M4.81604 57.4871C4.91354 57.1533 5.01479 56.8027 5.11792 56.4446C5.00729 56.8308 4.90792 57.1646 4.81604 57.4871Z" fill="#1CC26F"/>
<path d="M3.17358 66.0183C3.03483 66.9839 2.92045 67.9589 2.82483 68.9377C2.93545 68.0414 3.04983 67.0252 3.17358 66.0183Z" fill="#1CC26F"/>
<path d="M7.93239 103.501C7.05114 101.081 6.00676 97.9852 5.18176 95.2683C6.35176 99.5677 6.60864 100.235 7.93239 103.501Z" fill="#1CC26F"/>
<path d="M4.63989 93.4346C4.80489 94.0158 4.98677 94.6308 5.18177 95.2683C5.08989 94.9364 4.99427 94.5802 4.89114 94.1996C4.79139 93.9501 4.70748 93.6946 4.63989 93.4346Z" fill="#1CC26F"/>
<path d="M9.63489 44.3358C10.113 43.3646 10.7018 42.1833 11.4611 40.6646C10.8836 41.7427 10.2461 43.0514 9.63489 44.3358Z" fill="#1CC26F"/>
<path d="M7.98487 103.629C8.05425 103.798 8.13487 103.965 8.22112 104.133L7.93237 103.501L7.98487 103.629Z" fill="#1CC26F"/>
<path d="M16.0323 33.4683C16.5948 32.6995 17.2398 31.7977 18.0386 30.6952C17.4123 31.5183 16.7223 32.482 16.0323 33.4683Z" fill="#1CC26F"/>
<path d="M49.0323 143.917L49.0886 143.94C49.4936 144.097 49.9155 144.249 50.3486 144.399L48.9855 143.898L49.0323 143.917Z" fill="#1CC26F"/>
<path d="M4.46922 92.7333C4.52885 92.9748 4.60209 93.2126 4.6886 93.4458C4.5686 93.0033 4.44297 92.5346 4.3136 92.0283L4.46922 92.7333Z" fill="#1CC26F"/>
<path d="M135.177 118.22C134.553 119.073 133.792 120.095 132.817 121.419C133.563 120.483 134.377 119.362 135.177 118.22Z" fill="#1CC26F"/>
<path d="M113.532 138.352L114.565 137.715L114.117 137.988C113.922 138.11 113.729 138.232 113.532 138.352Z" fill="#1CC26F"/>
<path d="M123.16 131.39L124.516 130.203C123.819 130.807 123.217 131.328 122.669 131.786C122.84 131.655 123.005 131.521 123.16 131.39Z" fill="#1CC26F"/>
<path d="M113.157 138.57C113.225 138.53 113.29 138.487 113.358 138.446L113.058 138.633L113.157 138.57Z" fill="#1CC26F"/>
<path d="M127.032 127.77C126.34 128.443 125.532 129.232 124.518 130.207C125.304 129.487 126.164 128.643 127.032 127.77Z" fill="#1CC26F"/>
<path d="M112.143 139.164C110.643 139.978 109.584 140.555 108.702 141.016C109.782 140.475 110.907 139.873 112.143 139.164Z" fill="#1CC26F"/>
<path d="M138.314 37.9758L138.187 37.7602L139.394 39.8227C139.044 39.2002 138.684 38.5846 138.314 37.9758Z" fill="#1CC26F"/>
<path d="M112.43 139.008L112.672 138.864C112.585 138.915 112.484 138.963 112.404 139.012L112.143 139.164L112.43 139.008Z" fill="#1CC26F"/>
<path d="M108.702 141.018C106.64 142.055 104.739 142.873 102.599 143.793C105.646 142.518 106.717 142.059 108.702 141.018Z" fill="#1CC26F"/>
<path d="M148.54 82.1883C148.54 82.2258 148.525 82.2671 148.518 82.3046C148.349 83.8646 148.077 85.7958 147.627 88.9683C148.019 86.9546 148.28 84.2246 148.54 82.1883Z" fill="#1CC26F"/>
<path d="M139.117 112.181C139.139 112.143 139.16 112.104 139.181 112.068L139.066 112.267L139.117 112.181Z" fill="#1CC26F"/>
<path d="M48.8093 7.7058C48.5149 7.82018 48.2205 7.93643 47.9261 8.0583L49.7599 7.33643L48.8093 7.7058Z" fill="#1CC26F"/>
<path d="M26.3767 21.7177L26.388 21.7064L26.3767 21.7177Z" fill="#1CC26F"/>
<path d="M27.933 20.3358C27.5792 20.6396 27.2286 20.9471 26.8811 21.2583L28.1674 20.1333C28.0867 20.2008 28.0099 20.2683 27.933 20.3358Z" fill="#1CC26F"/>
<path d="M145.908 96.0952C145.554 97.2464 145.096 98.6845 144.475 100.642C144.965 99.3145 145.456 97.6646 145.908 96.0952Z" fill="#1CC26F"/>
<path d="M139.497 111.511L139.595 111.324C139.456 111.573 139.321 111.823 139.18 112.074L139.497 111.511Z" fill="#1CC26F"/>
<path d="M83.5454 148.507C83.0261 148.563 82.5048 148.612 81.9798 148.657L81.6536 148.687C82.2198 148.644 82.9698 148.561 83.5454 148.507Z" fill="#1CC26F"/>
<path d="M73.1374 148.893L71.9205 148.845C72.2824 148.856 72.7193 148.871 73.1374 148.893Z" fill="#1CC26F"/>
<path d="M76.6755 148.925H75.0948C75.7755 148.936 76.0211 148.938 76.6755 148.925Z" fill="#1CC26F"/>
<path d="M71.9205 148.837C71.1517 148.79 70.6548 148.758 70.278 148.732C70.9567 148.788 71.2117 148.801 71.9205 148.837Z" fill="#1CC26F"/>
<path d="M78.2823 148.893L76.6736 148.931C77.3336 148.92 77.5961 148.912 78.2823 148.893Z" fill="#1CC26F"/>
<path d="M79.9698 148.807H80.0055L78.2823 148.893C78.7886 148.869 79.4598 148.831 79.9698 148.807Z" fill="#1CC26F"/>
<path d="M65.6335 148.243C65.9823 148.291 66.3385 148.336 66.6948 148.38L64.9829 148.143L65.6335 148.243Z" fill="#1CC26F"/>
<path d="M62.9167 147.813C62.4423 147.725 61.8029 147.603 60.7998 147.41C61.7111 147.6 62.0861 147.675 62.9167 147.813Z" fill="#1CC26F"/>
<path d="M64.983 148.143C64.0193 147.988 63.393 147.886 62.9205 147.806C63.753 147.969 64.0812 148.018 64.983 148.143Z" fill="#1CC26F"/>
<path d="M88.0455 147.873C91.5237 147.223 93.1474 146.836 95.5812 146.141C93.2018 146.818 90.9893 147.311 88.7468 147.723C88.5143 147.778 88.2818 147.828 88.0455 147.873Z" fill="#1CC26F"/>
<path d="M98.4011 145.303L100.098 144.718L99.5036 144.905L99.3161 144.973L98.4011 145.303Z" fill="#1CC26F"/>
<path d="M56.6654 146.416L55.6792 146.156L56.6654 146.416Z" fill="#1CC26F"/>
<path d="M97.743 145.518C97.9698 145.441 98.193 145.359 98.418 145.278C97.4805 145.584 96.5786 145.863 95.6992 146.115C96.3142 145.933 96.9798 145.738 97.743 145.518Z" fill="#1CC26F"/>
<path d="M100.098 144.718C100.321 144.643 100.541 144.568 100.752 144.493L100.098 144.718Z" fill="#1CC26F"/>
<path d="M85.4299 148.278H85.4618L87.4455 147.98C87.6855 147.937 87.9237 147.888 88.1618 147.834C87.2599 147.993 86.3505 148.141 85.4205 148.284L85.4299 148.278Z" fill="#1CC26F"/>
<path d="M101.793 144.105L102.599 143.791C101.89 144.061 101.206 144.311 100.537 144.541C100.97 144.405 101.394 144.256 101.793 144.105Z" fill="#1CC26F"/>
<path d="M95.6992 146.109L95.5811 146.141L95.6992 146.109Z" fill="#1CC26F"/>
<path d="M3.17358 66.0183C3.23483 65.5808 3.30046 65.1433 3.37046 64.7058C3.42858 64.2652 3.48858 63.7964 3.55796 63.2958C3.41546 64.1227 3.28233 65.0658 3.17358 66.0183Z" fill="#1CC26F"/>
<path d="M123.738 20.6433C123.88 20.7746 124.015 20.9077 124.143 21.0389L125.296 22.0289L123.738 20.6433Z" fill="#1CC26F"/>
<path d="M146.675 58.1021C146.609 57.8433 146.538 57.5733 146.461 57.2958C146.564 57.7364 146.675 58.2239 146.797 58.7827C146.77 58.5536 146.729 58.3263 146.675 58.1021Z" fill="#1CC26F"/>
<path d="M146.844 58.7939C146.902 59.049 146.944 59.3077 146.967 59.5683C147.192 60.6221 147.462 61.9102 147.806 63.5471L146.844 58.7939Z" fill="#1CC26F"/>
<path d="M143.452 48.2302C143.414 48.1177 143.371 48.0052 143.324 47.8927L143.452 48.2302Z" fill="#1CC26F"/>
<path d="M143.452 48.2302C143.51 48.3952 143.559 48.5621 143.602 48.7271C143.941 49.5896 144.337 50.6021 144.815 51.8246L143.452 48.2302Z" fill="#1CC26F"/>
<path d="M148.565 69.5808C148.552 69.4252 148.535 69.2602 148.518 69.0971C148.539 69.4177 148.559 69.7608 148.58 70.1377C148.582 69.9558 148.58 69.7683 148.565 69.5808Z" fill="#1CC26F"/>
<path d="M147.805 63.5471C148.015 65.2027 148.345 67.3533 148.518 69.1027C148.385 67.1114 148.22 66.0183 147.805 63.5471Z" fill="#1CC26F"/>
<path d="M137.817 37.1621C137.697 36.9746 137.572 36.7871 137.442 36.5864C137.63 36.8696 137.806 37.1489 137.982 37.4396C137.93 37.3477 137.876 37.2539 137.817 37.1621Z" fill="#1CC26F"/>
<path d="M26.3879 21.7064C26.7048 21.4195 27.0273 21.1439 27.3517 20.8589C27.0498 21.1214 26.7311 21.4045 26.3879 21.7064Z" fill="#1CC26F"/>
<path d="M131.784 28.8502C131.902 29.0039 132.01 29.1577 132.114 29.3114L133.456 30.9089L131.784 28.8502Z" fill="#1CC26F"/>
<path d="M131.784 28.8502C131.701 28.7433 131.615 28.6364 131.523 28.5296L131.784 28.8502Z" fill="#1CC26F"/>
<path d="M138.155 37.7602C137.967 37.4471 137.761 37.1377 137.562 36.8227C137.774 37.1714 138.005 37.5539 138.256 37.9758C138.224 37.9083 138.191 37.8333 138.155 37.7602Z" fill="#1CC26F"/>
<path d="M138.485 38.2983C138.534 38.3958 138.579 38.4952 138.622 38.5927C138.997 39.2264 139.426 39.9427 139.915 40.7658C139.452 39.9333 138.975 39.1108 138.485 38.2983Z" fill="#1CC26F"/>
<path d="M148.621 70.312L148.636 70.7302C148.636 70.5914 148.632 70.4527 148.621 70.312Z" fill="#1CC26F"/>
<path d="M143.052 47.2421L142.689 46.4508C142.876 46.9139 143.088 47.4333 143.326 48.0296C143.253 47.761 143.162 47.4978 143.052 47.2421Z" fill="#1CC26F"/>
<path d="M144.815 51.8246C145.306 53.4502 145.975 55.5314 146.461 57.2958C145.983 55.2633 145.64 54.2377 144.815 51.8246Z" fill="#1CC26F"/>
<path d="M60.5749 4.19393C60.0536 4.30643 59.4405 4.4433 58.668 4.61393C58.8911 4.55393 59.1161 4.49768 59.3411 4.4433C58.8968 4.54455 58.4543 4.65143 58.0155 4.7733C54.6949 5.6433 54.0949 5.84393 50.8005 6.9558C50.3505 7.11143 49.758 7.34768 49.3118 7.5183C49.713 7.3683 50.1161 7.2258 50.5211 7.08705C53.8623 5.85562 57.2913 4.87724 60.7793 4.16018L60.5749 4.19393Z" fill="#1CC26F"/>
<path d="M20.4386 123.757C20.928 124.301 21.4811 124.893 22.0605 125.499L21.8617 125.274C21.4323 124.818 20.9636 124.318 20.4386 123.757Z" fill="#1CC26F"/>
<path d="M69.1548 148.638L68.6073 148.591C69.3235 148.661 69.5973 148.687 70.2779 148.732L69.4492 148.665L69.1548 148.638Z" fill="#1CC26F"/>
<path d="M26.1292 21.9558C25.788 22.2689 25.4467 22.5821 25.113 22.8933C24.4961 23.4933 23.8117 24.2058 23.1217 24.9258C23.9073 24.1402 24.8636 23.1933 26.1292 21.9558Z" fill="#1CC26F"/>
<path d="M148.82 75.8883L148.595 81.4627C148.522 82.3009 148.283 83.1162 147.892 83.8608C148.023 82.1658 148.09 80.452 148.094 78.7195C148.098 76.987 148.035 75.2677 147.907 73.5614C148.316 72.7839 148.557 71.9293 148.615 71.0527C148.6 70.7283 148.585 70.4264 148.57 70.1433C148.547 71.1011 148.302 72.0404 147.856 72.8883C147.577 69.5146 147.053 66.1657 146.287 62.8683C146.825 61.8563 147.058 60.7101 146.958 59.5683C146.898 59.2908 146.842 59.0302 146.787 58.7827C146.924 59.9694 146.696 61.1696 146.133 62.2233C145.345 58.977 144.328 55.7908 143.088 52.6889C143.745 51.4775 143.925 50.0643 143.592 48.7271C143.495 48.477 143.403 48.2445 143.317 48.0295C143.684 49.3904 143.514 50.8405 142.842 52.0796C141.583 49.0095 140.114 46.0294 138.447 43.1602C138.826 42.4634 139.038 41.6884 139.067 40.8958C139.095 40.1033 138.94 39.3149 138.612 38.5927C138.487 38.3808 138.365 38.1764 138.247 37.9814C138.59 38.7069 138.757 39.5031 138.734 40.3053C138.711 41.1074 138.499 41.8928 138.115 42.5977C136.424 39.747 134.545 37.0121 132.49 34.4114C132.856 33.737 133.05 32.9827 133.055 32.2153C133.059 31.448 132.875 30.6914 132.517 30.0127C134.339 32.1754 136.022 34.4519 137.555 36.8283C137.395 36.5658 137.247 36.3239 137.105 36.0933L137.435 36.5864L137.002 35.9245C135.798 33.9895 135.127 33.0839 133.439 30.9089C133.87 31.5108 134.35 32.1764 134.844 32.8664C134.045 31.7939 133.214 30.7458 132.352 29.722C132.273 29.5852 132.187 29.4483 132.097 29.3114L131.664 28.7977C131.763 28.9439 131.851 29.092 131.941 29.2383C129.862 26.8249 127.615 24.5624 125.215 22.4677C124.913 21.949 124.547 21.4702 124.126 21.0427C123.974 20.9133 123.822 20.782 123.67 20.6546C124.084 21.0756 124.443 21.5468 124.739 22.0571C122.306 19.973 119.728 18.0638 117.025 16.3439C116.568 15.5377 115.794 14.7352 114.695 13.9496C116.157 14.9114 117.194 15.5977 118.036 16.1752C116.907 15.3539 115.679 14.5233 114.282 13.6552C114.09 13.5302 113.887 13.4052 113.675 13.2802L113.862 13.4021L113.51 13.1864C114.969 14.1089 115.96 15.0614 116.51 16.0139C113.76 14.2989 110.891 12.7813 107.926 11.4727C107.452 10.6346 106.544 9.80205 105.172 8.99768C107.422 10.0196 110.41 11.4052 112.617 12.6464C112.332 12.4777 112.045 12.3108 111.749 12.1383C110.35 11.3883 109.312 10.8483 108.444 10.3983C107.255 9.8208 106.044 9.2733 104.808 8.79143C104.409 8.57018 103.977 8.35642 103.524 8.15018C104.934 8.75017 105.905 9.1683 106.726 9.5433C105.64 9.02393 104.589 8.57017 102.948 7.89517L102.815 7.8408L102.352 7.6533L102.445 7.69268L102.309 7.63643L102.069 7.5483C102.822 7.84961 103.557 8.19457 104.27 8.58142C101.529 7.52945 98.7069 6.70051 95.8323 6.10268C94.6565 5.48492 93.4191 4.99223 92.1404 4.63268C93.626 4.87598 95.0946 5.21354 96.5373 5.6433C97.5929 5.98268 98.8998 6.41205 100.087 6.81893C98.1573 6.11393 97.5948 5.94143 95.7385 5.40893C95.5961 5.36768 95.4536 5.33205 95.3111 5.29268L94.681 5.1258C93.7523 4.8933 92.8104 4.69768 91.8554 4.53893C90.2384 4.08846 88.5962 3.73409 86.9373 3.47768C87.0554 3.49268 87.1735 3.51143 87.2917 3.53018C87.9592 3.6483 88.7804 3.79455 89.5417 3.93705C87.7248 3.5808 87.5579 3.56393 86.3448 3.3933L86.8173 3.46455L86.5904 3.4308C86.4498 3.4083 86.3073 3.38955 86.1667 3.36893L85.5573 3.28643C85.7992 3.32018 86.0429 3.35393 86.2811 3.39143C84.6675 3.20315 83.0349 3.25877 81.4379 3.55643C80.5004 3.41205 79.4842 3.3033 78.4379 3.23393C79.0695 2.89207 79.7832 2.73116 80.5004 2.76893L81.6254 2.85705C80.4685 2.75955 80.2886 2.75018 79.4092 2.70518L80.1123 2.74455C79.4541 2.71628 78.8022 2.88187 78.2373 3.2208C77.1854 3.15705 76.0998 3.13268 75.0104 3.15143C74.8098 2.78955 74.6129 2.61518 74.4198 2.61893C73.9211 2.61893 73.6473 2.63393 73.0454 2.65643L74.0448 2.62643C74.2886 2.62643 74.5398 2.7933 74.7948 3.15518C73.7073 3.17955 72.6179 3.24705 71.5567 3.35955C70.4442 3.02935 69.2801 2.90855 68.1236 3.0033C67.1429 3.1008 66.8317 3.14018 65.9148 3.26393L65.5098 3.32768C65.7329 3.29393 65.9542 3.26018 66.1848 3.23018C66.6273 3.17018 67.0723 3.11518 67.5198 3.06518C68.8046 2.92765 70.1038 3.03517 71.3485 3.38205C71.1067 3.4083 70.8667 3.4383 70.6285 3.47018C69.8279 3.57893 69.0892 3.7083 68.4217 3.85643C66.312 3.64334 64.1849 3.67417 62.0823 3.9483C62.6129 3.83018 63.1717 3.71955 63.7492 3.61455C63.2954 3.6933 62.8498 3.77268 62.4123 3.85268L61.6773 4.00455L61.3417 4.05893L60.7942 4.16955C60.9817 4.13768 61.1692 4.1058 61.3567 4.07768C59.929 4.39259 58.5289 4.82146 57.1698 5.36018C54.9204 5.77647 52.7045 6.35677 50.5398 7.09643C50.0654 7.26893 49.5817 7.44705 49.0867 7.63455C51.6329 6.686 54.2556 5.95709 56.926 5.4558C55.98 5.82913 55.0991 6.34996 54.316 6.99893C51.2382 7.72151 48.2185 8.6729 45.2823 9.84518C46.1429 9.07643 47.3804 8.34517 48.9629 7.66455L48.4323 7.86705C46.8311 8.55518 45.5785 9.29955 44.7048 10.0796C41.8348 11.2619 39.0565 12.6558 36.3929 14.2496C36.8779 13.8243 37.3958 13.4381 37.9417 13.0946L37.3623 13.4452L37.8873 13.1189C37.6998 13.2314 37.5123 13.3439 37.3417 13.4583C36.9292 13.7096 36.5129 13.9683 36.0817 14.2439L37.3135 13.4771C36.8061 13.8033 36.3241 14.1674 35.8717 14.5664C34.8992 15.1627 33.9429 15.7877 33.0029 16.4414C33.7642 15.8789 34.5198 15.3427 35.2304 14.8439C32.2323 16.9158 30.8448 17.8983 28.9698 19.4789L28.9942 19.4583L28.8967 19.5389C28.5123 19.8633 28.1054 20.2102 27.6573 20.6002C26.3935 21.8095 25.7185 23.0714 25.6773 24.3502C23.2419 26.5324 20.959 28.8792 18.8448 31.3739C18.8823 30.1533 19.4317 28.9458 20.4629 27.772C21.2579 26.9227 22.1992 25.8971 23.131 24.9239C20.9692 27.0971 20.1779 28.0289 18.0479 30.6952L19.9923 28.3177C18.9967 29.4764 18.4642 30.6689 18.4267 31.8708C16.3397 34.3788 14.4307 37.0296 12.7135 39.8039C12.7614 38.7812 13.0853 37.7905 13.651 36.937C14.3598 35.8983 15.1942 34.6683 16.0342 33.4683C13.6923 36.7252 13.1973 37.5464 11.4629 40.6646L13.0735 37.8933C12.6467 38.6486 12.4045 39.4941 12.3667 40.3608C10.6707 43.1551 9.17632 46.0669 7.89479 49.0739C7.92222 48.3626 8.08381 47.6628 8.37105 47.0114C8.74605 46.2033 9.18855 45.2771 9.6348 44.3377C8.0373 47.587 7.70355 48.4627 6.59167 51.592L8.09167 47.6545C7.81844 48.2924 7.66464 48.9749 7.63792 49.6683C6.37315 52.7205 5.33411 55.8615 4.52917 59.0658C4.54238 58.6931 4.59199 58.3226 4.6773 57.9595C4.1823 59.7745 3.97042 60.9089 3.55229 63.3033L4.46167 58.9064C4.4134 59.1696 4.38457 59.4359 4.37542 59.7033C3.97792 61.3521 3.6423 63.022 3.36854 64.7133C3.03854 67.2539 2.83417 68.8533 2.70854 70.1283V70.0664C2.70854 70.0871 2.70854 70.1077 2.70854 70.1302C2.52104 72.0052 2.50604 73.1883 2.49292 75.6427C2.49292 75.6802 2.49292 75.7158 2.49292 75.7533C2.49292 74.0508 2.56042 72.3633 2.69542 70.6908C2.75917 72.5658 3.7623 74.4558 5.7723 76.3158C5.6473 78.0271 5.5848 79.7489 5.5848 81.4814C5.5848 83.2139 5.64355 84.9258 5.76105 86.6171C4.0323 84.7683 3.17542 83.8308 2.78917 81.802C2.80042 81.9614 2.81167 82.1189 2.8248 82.2764C3.24667 84.1177 3.55979 85.0889 5.80979 87.2846C6.07321 90.5942 6.58021 93.88 7.32667 97.1152C6.01417 95.902 5.1423 94.6777 4.68854 93.4458C4.75792 93.7083 4.82542 93.9577 4.89105 94.1958C5.35605 95.3846 6.20354 96.5714 7.47667 97.7433C8.22942 100.866 9.21274 103.929 10.4185 106.906C9.52915 106.117 8.78536 105.177 8.22105 104.13L8.61667 104.998C9.1648 105.927 9.85288 106.766 10.6567 107.486C11.8634 110.385 13.2842 113.19 14.9073 115.878C14.2253 115.267 13.6304 114.565 13.1392 113.791L13.3473 114.131L13.8948 114.956C14.2949 115.48 14.7411 115.968 15.2279 116.413C16.8549 119.049 18.6756 121.56 20.6748 123.926C20.3663 123.64 20.0745 123.337 19.801 123.018L20.2623 123.556C20.5166 123.847 20.7863 124.124 21.0704 124.385C21.3292 124.687 21.5954 124.983 21.8617 125.28L22.6454 126.112L22.0604 125.505C22.9429 126.482 23.8567 127.429 24.8017 128.345C25.7392 129.283 26.5248 129.999 27.6329 130.95C25.6998 129.121 23.1817 126.637 21.3892 124.672C22.3519 125.482 23.3905 126.197 24.4904 126.808C25.8367 127.562 27.2302 128.228 28.6623 128.803C30.3684 130.947 32.2445 132.95 34.2723 134.793C33.0116 134.289 31.7852 133.703 30.601 133.038C29.7309 132.554 28.9035 131.996 28.1279 131.371C28.3154 131.523 28.4917 131.683 28.6904 131.848C29.4296 132.43 30.2132 132.953 31.0342 133.413C32.2079 134.069 33.4223 134.65 34.6698 135.151C36.6766 136.935 38.8298 138.547 41.1067 139.97C40.1263 139.575 39.1703 139.121 38.2435 138.613L38.7798 138.935C39.6787 139.426 40.6052 139.864 41.5548 140.248C42.8994 141.068 44.285 141.819 45.706 142.498C45.0385 142.2 44.4892 141.95 44.0035 141.725C44.956 142.196 45.8017 142.58 46.9229 143.055C47.2698 143.208 47.6167 143.358 47.9692 143.503L47.6167 143.347L47.851 143.445L47.3448 143.212L47.1048 143.105C45.3477 142.32 43.6429 141.422 42.001 140.418C44.5937 141.4 47.2578 142.182 49.9698 142.756C51.6507 143.957 53.4584 144.969 55.3604 145.775C53.6676 145.407 51.9964 144.945 50.3542 144.393L50.9317 144.603C50.596 144.489 50.2698 144.375 49.9661 144.268C50.3411 144.412 50.7517 144.551 51.1642 144.688C53.1929 145.425 53.7254 145.586 55.6792 146.15C54.4248 145.764 52.8779 145.263 51.4717 144.787C52.7729 145.205 54.1979 145.584 55.7261 145.912C57.0402 146.444 58.3961 146.867 59.7798 147.176C58.8554 146.955 57.7004 146.67 56.6654 146.401C59.0317 147.028 59.2098 147.063 60.7998 147.395L60.3685 147.305C58.939 146.998 57.5393 146.566 56.1854 146.013C58.5329 146.512 61.1073 146.917 63.8242 147.219C64.8904 147.84 66.065 148.252 67.2854 148.434L66.6948 148.365C67.5236 148.471 67.7917 148.498 68.6073 148.576L67.9567 148.511H67.8892C68.3054 148.556 68.7292 148.595 69.1548 148.631L69.4492 148.657C70.8404 148.771 72.2617 148.845 73.7204 148.886C73.7573 148.895 73.795 148.901 73.8329 148.903L73.1373 148.878C74.0992 148.916 74.2961 148.918 75.0948 148.923L74.206 148.912C74.1753 148.91 74.145 148.904 74.1161 148.893C76.1204 148.935 78.1567 148.893 80.1704 148.779C80.1142 148.779 80.0579 148.792 79.9998 148.796C80.6579 148.762 80.9373 148.74 81.6535 148.68L80.3617 148.775C80.431 148.775 80.4986 148.764 80.5679 148.755C81.0404 148.725 81.511 148.69 81.9798 148.65C84.0423 148.462 84.1979 148.436 85.4148 148.275C83.8811 148.481 82.3042 148.635 80.7104 148.736C81.5251 148.577 82.2813 148.2 82.8986 147.645C85.1654 147.498 87.4098 147.281 89.5923 146.988C90.2385 146.9 90.8692 146.807 91.4842 146.711C90.4155 147.194 89.3004 147.567 88.1561 147.825L88.7411 147.72C89.8634 147.458 90.9588 147.092 92.0129 146.626C94.3793 146.25 96.7196 145.724 99.0198 145.053C98.8192 145.128 98.6148 145.196 98.4123 145.269L99.3011 144.973L99.4117 144.933L99.4979 144.905C99.8379 144.789 100.182 144.669 100.531 144.545C100.312 144.618 100.089 144.69 99.8598 144.761C102.131 143.873 104.312 142.773 106.375 141.474C108.783 140.724 110.797 139.893 112.398 139.008L113.058 138.622C111.41 139.56 109.308 140.428 106.784 141.213C108.87 139.863 110.83 138.329 112.642 136.629C115.7 135.678 118.235 134.619 120.207 133.486C118.054 135.311 115.765 136.968 113.358 138.442C113.604 138.294 113.857 138.142 114.108 137.985C114.359 137.827 114.573 137.692 114.804 137.544C115.664 136.961 116.401 136.46 117.054 136.014C118.265 135.139 119.442 134.221 120.586 133.261C121.085 132.964 121.568 132.641 122.034 132.294C120.714 133.331 119.742 134.092 118.97 134.681C120.072 133.89 120.997 133.181 122.139 132.226C122.296 132.106 122.446 131.986 122.592 131.866L122.244 132.14L122.665 131.786C122.142 132.185 121.596 132.555 121.03 132.892C123.256 130.97 125.331 128.88 127.237 126.641C128.407 125.961 129.488 125.138 130.454 124.19C129.414 125.3 128.215 126.568 127.027 127.77C129.652 125.212 130.458 124.303 132.813 121.421L131.328 123.215C130.449 124.239 129.202 125.238 127.612 126.195C129.524 123.9 131.259 121.465 132.804 118.908C134.877 117.661 136.417 116.347 137.388 114.999C136.711 115.993 135.948 117.116 135.174 118.22C137.079 115.614 137.699 114.645 139.062 112.267L138.035 113.994C137.097 115.516 135.436 116.994 133.109 118.396C134.664 115.763 136.022 113.018 137.17 110.184C139.765 108.622 141.586 106.966 142.567 105.264C142.392 105.671 142.209 106.072 142.027 106.475L141.719 107.137L141.858 106.856C141.693 107.216 141.52 107.572 141.348 107.928L140.934 108.815C141.417 107.863 141.878 106.897 142.315 105.918C143.189 104.1 143.594 103.029 144.472 100.642L143.214 103.873C143.15 104.028 143.077 104.184 142.998 104.338C144.252 101.325 145.281 98.2233 146.077 95.0583C146.239 94.7386 146.377 94.407 146.489 94.0664C146.302 94.702 146.114 95.3902 145.904 96.0952C146.842 93.0445 147.048 92.0508 147.624 88.9702L146.776 92.9789C146.651 93.479 146.469 93.9629 146.232 94.4208C147.017 91.169 147.556 87.8628 147.845 84.5302C148.128 83.8073 148.354 83.0631 148.52 82.3046C148.75 80.2027 148.792 78.772 148.822 75.8883H148.82ZM147.669 73.2502C146.613 75.0802 144.657 76.8614 141.865 78.5396C141.609 75.1304 141.129 71.7418 140.427 68.3958C143.157 66.7552 145.07 65.0208 146.103 63.2227C146.868 66.5227 147.391 69.8741 147.669 73.2502ZM76.1223 5.41268C78.652 4.76877 81.2364 4.36325 83.8417 4.20143C84.4708 4.37892 85.0797 4.62148 85.6585 4.92518C82.4968 4.85129 79.334 5.02432 76.1992 5.44268C76.1749 5.42948 76.1491 5.4194 76.1223 5.41268ZM76.2029 5.44455C79.3798 5.04955 82.5824 4.89973 85.7823 4.99643C86.161 5.18987 86.4837 5.47714 86.7198 5.8308C83.2401 5.46471 79.7389 5.34503 76.2423 5.47268C76.2319 5.46002 76.2183 5.45032 76.2029 5.44455ZM71.4817 128.48C71.3779 126.151 71.2873 123.651 71.2098 120.98C77.4329 121.106 83.7592 120.991 90.0104 120.624C89.7329 123.299 89.4117 125.808 89.0467 128.152C83.206 128.491 77.2961 128.596 71.4817 128.48ZM88.9754 128.608C88.6004 130.923 88.1954 133.065 87.7492 135.016C82.4654 135.328 77.1179 135.423 71.8585 135.318C71.7335 133.376 71.6148 131.251 71.5023 128.943C77.2867 129.054 83.1573 128.949 88.9698 128.608H88.9754ZM71.1948 120.448C71.1186 117.758 71.0561 114.908 71.0073 111.9C77.5379 112.029 84.1754 111.911 90.7342 111.525C90.5554 114.533 90.3304 117.388 90.0592 120.09C83.7892 120.459 77.4404 120.581 71.1948 120.448ZM107.007 77.1464C102.147 77.7989 97.1467 78.2846 92.0936 78.6108C91.9061 75.1627 91.6811 71.7408 91.3979 68.3639C96.2317 68.0527 101.015 67.5877 105.665 66.9633C107.04 66.7771 108.384 66.5802 109.698 66.3727C110.319 69.7139 110.823 73.1077 111.226 76.5295C109.855 76.747 108.449 76.9527 107.007 77.1464ZM111.303 77.2064C111.678 80.632 111.946 84.0858 112.085 87.5489C110.68 87.7702 109.242 87.9802 107.772 88.1789C102.792 88.8502 97.6679 89.347 92.4892 89.6789C92.4273 86.2083 92.3017 82.7414 92.1367 79.2896C97.1992 78.9633 102.213 78.4777 107.084 77.8214C108.522 77.6302 109.928 77.4252 111.303 77.2064ZM69.5936 101.101C62.9129 100.933 56.3542 100.511 50.1085 99.8527C50.0673 98.1852 50.0479 96.4852 50.0504 94.7527C50.0529 93.0202 50.0785 91.287 50.1273 89.5533C56.3729 90.2114 62.9317 90.6333 69.6123 90.802C69.5985 92.5383 69.5898 94.2727 69.586 96.0052C69.5823 97.7377 69.5848 99.4364 69.5936 101.101ZM32.5679 74.9995C33.0629 71.5927 33.6929 68.2214 34.4598 64.9083C39.4623 65.9733 44.9467 66.8377 50.7367 67.4808C50.2717 70.8408 49.8854 74.2514 49.5854 77.6883C43.5329 77.0152 37.7992 76.1133 32.5679 74.9995ZM49.5273 78.3745C49.2367 81.8114 49.0323 85.2746 48.9198 88.7414C42.7173 88.0533 36.841 87.1271 31.4823 85.987C31.6698 82.5314 31.9979 79.0871 32.4723 75.6745C37.7148 76.7883 43.4617 77.692 49.5273 78.3671V78.3745ZM34.6117 64.2558C35.3917 60.9508 36.2973 57.7108 37.3285 54.5358C41.986 55.5277 47.0917 56.3321 52.4804 56.9302C51.8554 60.1627 51.3054 63.4583 50.8304 66.817C45.061 66.1758 39.5973 65.3171 34.6117 64.2558ZM50.1573 88.8671C50.266 85.4002 50.461 81.9296 50.7367 78.4964C56.8398 79.1395 63.2504 79.552 69.7792 79.717C69.7098 83.1689 69.6573 86.6433 69.6273 90.1158C62.9429 89.947 56.3879 89.5252 50.1573 88.8671ZM50.7929 77.8177C51.0817 74.3789 51.4485 70.9745 51.8936 67.6045C57.7173 68.2196 63.8354 68.6133 70.0679 68.7689C69.9573 72.1533 69.8654 75.5827 69.7942 79.0346C63.2692 78.8714 56.8735 78.4589 50.7835 77.8177H50.7929ZM51.9817 66.9427C52.4335 63.5883 52.9623 60.2827 53.5567 57.0483C58.9792 57.6202 64.6735 57.9858 70.4748 58.132C70.3304 61.3964 70.201 64.7264 70.0885 68.1033C63.871 67.9458 57.7754 67.5539 51.9723 66.9408L51.9817 66.9427ZM52.6135 56.2964C47.2529 55.7002 42.1735 54.9014 37.5423 53.9152C38.5848 50.7577 39.7435 47.6808 41.0111 44.707C45.2242 45.6033 49.8423 46.3308 54.7192 46.8727C53.941 49.9233 53.2379 53.0808 52.6042 56.2946L52.6135 56.2964ZM41.2642 44.1089C42.5442 41.1489 43.926 38.2977 45.4098 35.5552C49.0923 36.3408 53.1273 36.9745 57.3873 37.4489C56.491 40.2746 55.6492 43.2183 54.8729 46.2614C50.0242 45.7252 45.4379 45.0033 41.2548 44.1127L41.2642 44.1089ZM61.1504 28.9214C64.726 29.2964 68.4817 29.5402 72.3067 29.6358C72.076 32.2383 71.8548 34.9777 71.6467 37.8352C67.1054 37.7208 62.6467 37.4339 58.4017 36.9858C59.2567 34.1714 60.1735 31.4752 61.141 28.9214H61.1504ZM57.5654 36.8958C53.3467 36.427 49.3492 35.797 45.7042 35.0208C47.2042 32.3039 48.7829 29.7108 50.4535 27.2658C53.5248 27.9202 56.8923 28.4489 60.4454 28.8446C59.4235 31.3946 58.4617 34.0852 57.556 36.8958H57.5654ZM84.5317 28.9233C80.731 29.1483 76.8835 29.2158 73.0942 29.1408C73.2817 26.5552 73.4692 24.1121 73.6679 21.8283C76.6529 21.8883 79.6886 21.8283 82.6886 21.6577C83.3242 23.9246 83.9373 26.3545 84.5223 28.9233H84.5317ZM80.9692 14.9639C82.5648 14.8608 84.1454 14.7071 85.681 14.5008C86.1367 14.4389 86.5811 14.3752 87.0142 14.3133C88.7041 16.1935 90.2783 18.1747 91.7279 20.2458C91.1129 20.3433 90.4823 20.4358 89.8361 20.5233C87.6573 20.8083 85.4073 21.0183 83.1385 21.1721C82.4392 18.9314 81.7135 16.8539 80.9654 14.9639H80.9692ZM84.6423 29.4333C85.2217 32.0208 85.7673 34.7489 86.2904 37.5952C81.7192 37.8633 77.0917 37.9458 72.5392 37.8558C72.7023 34.9964 72.8767 32.2552 73.0585 29.6527C76.8892 29.7295 80.7854 29.6602 84.6385 29.4333H84.6423ZM72.0517 47.3639C72.1923 44.2833 72.3461 41.2946 72.5073 38.4221C77.1029 38.5139 81.7754 38.4221 86.3936 38.1577C86.9054 41.0189 87.3854 43.9945 87.8279 47.0658C82.5779 47.3733 77.2698 47.4689 72.0479 47.3639H72.0517ZM87.9161 47.6789C88.3529 50.7614 88.7523 53.9358 89.1104 57.1814C83.2979 57.5245 77.4236 57.6296 71.6392 57.5133C71.7554 54.2583 71.8848 51.0727 72.0235 47.9789C77.2811 48.0858 82.6285 47.9902 87.9123 47.6789H87.9161ZM72.3535 29.1164C68.5773 29.0208 64.8704 28.7827 61.3417 28.4095C62.3129 25.8745 63.3329 23.4802 64.3942 21.2508C67.1786 21.5452 70.1035 21.7327 73.0829 21.8133C72.8204 24.097 72.5767 26.5402 72.3442 29.1239L72.3535 29.1164ZM89.1873 57.8152C89.5398 61.0702 89.8511 64.3946 90.1248 67.7658C83.8736 68.1408 77.5473 68.2458 71.3242 68.122C71.4123 64.747 71.5117 61.4133 71.6298 58.1489C77.4273 58.2727 83.3448 58.1677 89.1779 57.8227L89.1873 57.8152ZM90.1698 68.4314C90.4286 71.8064 90.6442 75.2358 90.8073 78.6821C84.2448 79.0683 77.6111 79.1883 71.0823 79.0571C71.1404 75.6052 71.2136 72.1758 71.2998 68.7896C77.5323 68.9227 83.8848 68.8083 90.1604 68.4389L90.1698 68.4314ZM88.9642 47.6058C93.0367 47.3452 97.0642 46.9533 100.979 46.4264C102.14 46.2702 103.273 46.1052 104.377 45.9314C105.412 48.9502 106.359 52.0683 107.21 55.2614C105.995 55.4527 104.749 55.6346 103.473 55.8071C99.1604 56.3864 94.7392 56.8158 90.2635 57.1045C89.8642 53.8683 89.4292 50.6939 88.9548 47.6133L88.9642 47.6058ZM100.782 45.8302C96.8954 46.3533 92.896 46.7414 88.8536 47.002C88.3736 43.9327 87.8523 40.9589 87.2954 38.1014C90.8579 37.8727 94.3717 37.5389 97.7954 37.072C98.8092 36.9345 99.7986 36.7896 100.764 36.6371C101.977 39.4233 103.111 42.3314 104.157 45.337C103.062 45.512 101.937 45.6764 100.782 45.8302ZM97.5948 36.5189C94.2067 36.9745 90.721 37.312 87.1979 37.5389C86.6354 34.6964 86.0354 31.972 85.4054 29.3864C88.3736 29.1989 91.3098 28.9102 94.1636 28.5258C95.0086 28.4133 95.8342 28.2927 96.6404 28.1639C98.0111 30.6689 99.3123 33.3183 100.535 36.0896C99.5748 36.2396 98.5948 36.3827 97.5948 36.5189ZM93.9236 28.0289C91.1111 28.4039 88.2104 28.6889 85.2798 28.8783C84.646 26.3114 83.9785 23.8852 83.2848 21.6221C85.5948 21.4721 87.8823 21.2471 90.106 20.9527C90.7635 20.8627 91.4061 20.7683 92.0335 20.6695C93.5335 22.8446 94.9885 25.1864 96.3685 27.6727C95.5686 27.7989 94.7511 27.9177 93.9161 28.0289H93.9236ZM87.3817 14.2458C89.0471 13.9812 90.6941 13.6117 92.3129 13.1396C94.7433 14.7963 97.061 16.6128 99.2504 18.5771C96.9508 19.2481 94.6112 19.7736 92.2454 20.1502C90.7469 18.0841 89.1226 16.1122 87.3817 14.2458ZM92.1086 12.7458C89.7025 11.1754 87.1831 9.78593 84.5711 8.58892C85.1938 8.40407 85.7947 8.15262 86.3635 7.83892C89.4674 8.7986 92.5004 9.97396 95.4404 11.3564C94.3828 11.9356 93.2657 12.3989 92.1086 12.7383V12.7458ZM91.8404 12.8283C90.2677 13.2842 88.6676 13.6399 87.0498 13.8933C85.4382 12.199 83.698 10.6318 81.8448 9.2058C82.7155 9.06816 83.5767 8.87527 84.4229 8.6283C86.9963 9.83933 89.4757 11.2407 91.8404 12.8208V12.8283ZM86.6879 13.9533C86.2679 14.0208 85.8367 14.0827 85.3942 14.1408C83.8942 14.3414 82.3679 14.4914 80.8173 14.5908C80.1366 12.8792 79.3617 11.2067 78.4961 9.5808C79.3304 9.5283 80.1554 9.44768 80.9579 9.33893C81.196 9.30705 81.4286 9.2733 81.6535 9.23768C83.4507 10.6774 85.1339 12.254 86.6879 13.9533ZM82.5573 21.2058C79.6135 21.3802 76.6342 21.4327 73.7035 21.3745C73.9023 19.1133 74.1104 17.0171 74.3223 15.1046C76.3848 15.1458 78.4829 15.1046 80.5567 14.9864C81.2467 16.8821 81.9142 18.9558 82.5573 21.2058ZM73.1242 21.3614C70.201 21.2883 67.3304 21.1027 64.5967 20.8139C65.5987 18.7255 66.7057 16.6892 67.9136 14.7127C69.8373 14.9152 71.8511 15.0464 73.9136 15.0877C73.6436 17.0077 73.3792 19.1039 73.1242 21.3633V21.3614ZM64.0586 20.7558C61.3436 20.4539 58.7692 20.0489 56.4217 19.5502C58.2078 17.5189 60.1237 15.6056 62.1573 13.8221C63.8092 14.1746 65.6223 14.4596 67.5348 14.6714C66.2705 16.638 65.1101 18.6696 64.0586 20.7577V20.7558ZM63.8448 21.2058C62.7329 23.4296 61.6642 25.8164 60.6442 28.3477C57.136 27.9577 53.8135 27.4345 50.7835 26.7895C52.4168 24.4234 54.1788 22.1487 56.0617 19.9758C58.4467 20.4783 61.0698 20.8927 63.8448 21.2058ZM50.1873 26.6602C47.4764 26.0857 44.8136 25.3041 42.2223 24.3221C44.4515 22.079 46.8152 19.9738 49.3004 18.0183C51.3479 18.7953 53.4523 19.4134 55.5948 19.8671C53.6661 22.0281 51.8584 24.294 50.1798 26.6545L50.1873 26.6602ZM49.8498 27.1402C48.1398 29.5777 46.5186 32.1552 44.986 34.8727C41.7256 34.1795 38.5226 33.2393 35.4048 32.0602C37.3885 29.5108 39.517 27.0774 41.7798 24.7721C44.4032 25.7638 47.0985 26.5536 49.8423 27.1345L49.8498 27.1402ZM58.2198 37.5445C62.5079 37.9964 67.0098 38.2946 71.5942 38.4014C71.3879 41.2739 71.1948 44.2608 71.0167 47.3414C65.806 47.2102 60.6911 46.8802 55.8198 46.3683C56.5642 43.3308 57.3667 40.3739 58.2198 37.5445ZM71.0598 79.7452C77.6036 79.8764 84.2561 79.7583 90.8279 79.3702C90.9873 82.8202 91.0961 86.2908 91.1504 89.7614C84.4304 90.1571 77.6279 90.2789 70.9361 90.1458C70.9698 86.6733 71.0054 83.1989 71.0617 79.7452H71.0598ZM90.3311 57.7533C94.8311 57.4627 99.2823 57.0314 103.61 56.4408C104.894 56.2683 106.144 56.0858 107.36 55.8933C108.198 59.0958 108.937 62.3752 109.569 65.707C108.264 65.9133 106.924 66.1089 105.55 66.2939C100.917 66.9164 96.1529 67.3795 91.3361 67.6889C91.0529 64.3308 90.7136 61.0046 90.3311 57.7533ZM108.412 55.7321C113.662 54.8621 118.321 53.8083 122.313 52.6102C123.547 55.7264 124.638 58.9289 125.572 62.1933C121.3 63.4739 116.32 64.6045 110.695 65.5327C110.041 62.2046 109.276 58.9308 108.412 55.7321ZM108.239 55.1002C107.364 51.9114 106.389 48.8064 105.314 45.7852C109.562 45.1084 113.762 44.1634 117.89 42.9558C119.416 45.8671 120.809 48.8789 122.067 51.9914C117.528 53.3183 112.91 54.3567 108.239 55.1002ZM105.095 45.1852C104.013 42.1852 102.845 39.2845 101.589 36.5039C105.3 35.9136 108.97 35.0901 112.578 34.0383C114.389 36.7357 116.06 39.5243 117.584 42.3933C113.484 43.5866 109.313 44.5191 105.095 45.1852ZM101.345 35.9564C100.081 33.1927 98.7367 30.5508 97.321 28.0533C100.417 27.559 103.479 26.8701 106.488 25.9908C108.536 28.3908 110.452 30.9001 112.227 33.5077C108.655 34.5527 105.02 35.3706 101.345 35.9564ZM97.0323 27.562C95.658 25.162 94.1636 22.8328 92.5548 20.5833C94.9656 20.1999 97.3497 19.6645 99.6929 18.9802C101.949 21.0356 104.082 23.2232 106.079 25.5314C103.112 26.397 100.094 27.0752 97.0417 27.562H97.0323ZM99.6573 18.4608C97.4259 16.5045 95.0669 14.6986 92.596 13.0552C93.787 12.7046 94.9368 12.2269 96.0254 11.6302C98.9638 13.0437 101.806 14.6497 104.532 16.4377C102.985 17.2851 101.35 17.9633 99.6573 18.4608ZM95.6073 11.2552C92.6404 9.88711 89.5817 8.72743 86.4535 7.78455C86.8321 7.5825 87.1543 7.28928 87.391 6.93143C90.7681 7.61765 94.0945 8.53289 97.3473 9.6708C97.0323 10.2202 96.4436 10.7527 95.6073 11.2552ZM86.7442 6.74393C83.2769 6.09161 79.7684 5.68186 76.2442 5.51768C76.247 5.51216 76.2484 5.50605 76.2484 5.49986C76.2484 5.49367 76.247 5.48757 76.2442 5.48205C79.7495 5.3735 83.2582 5.51133 86.7442 5.89455C86.8144 6.02509 86.8512 6.171 86.8512 6.31924C86.8512 6.46747 86.8144 6.61339 86.7442 6.74393ZM86.7142 6.7983C86.4919 7.13437 86.1898 7.4101 85.8348 7.6008C82.6798 6.68381 79.4618 5.99947 76.2067 5.5533C76.2218 5.54613 76.2343 5.53431 76.2423 5.51955C79.7603 5.70182 83.2613 6.1291 86.7198 6.7983H86.7142ZM85.7486 7.65142C85.2132 7.94571 84.6473 8.18085 84.0611 8.35268C81.4995 7.21124 78.8472 6.28553 76.1317 5.58518C76.1564 5.57766 76.1803 5.5676 76.2029 5.55518C79.4321 6.01761 82.6227 6.71828 85.7486 7.65142ZM83.9242 8.40142C83.1272 8.63464 82.3162 8.81688 81.4961 8.94705C79.7896 7.6567 77.9594 6.53873 76.0323 5.60955C76.0665 5.60415 76.1003 5.59664 76.1336 5.58705C78.8047 6.30216 81.4108 7.24111 83.9242 8.39392V8.40142ZM81.3142 8.97705C81.1004 9.0108 80.8811 9.04268 80.6579 9.07268C79.9079 9.17393 79.1242 9.24893 78.3385 9.29955C77.6428 8.00334 76.8267 6.77543 75.901 5.63205H75.9986H76.0248C77.8945 6.56584 79.6665 7.68388 81.3142 8.96955V8.97705ZM80.4198 14.6171C78.4061 14.7352 76.3698 14.7708 74.3654 14.7314C74.5792 12.8452 74.7985 11.1446 75.0236 9.65393C76.1017 9.67643 77.1985 9.65393 78.2823 9.59205C79.0816 11.2288 79.7951 12.906 80.4198 14.6171ZM73.9698 14.722C71.971 14.6733 70.0079 14.5458 68.1385 14.347C69.2002 12.6336 70.3813 10.997 71.6729 9.44955C72.6798 9.55455 73.7354 9.62205 74.8117 9.65018C74.5323 11.1389 74.2435 12.8377 73.9698 14.722ZM67.771 14.3096C65.9129 14.1033 64.1542 13.8258 62.5492 13.4846C64.4687 11.8289 66.5135 10.3244 68.6654 8.98455C69.5298 9.17205 70.4767 9.3183 71.4779 9.42893C70.1264 10.9644 68.8876 12.5955 67.771 14.3096ZM62.2342 13.4152C60.7986 13.1104 59.3882 12.6967 58.0154 12.1777C60.6548 10.6822 63.3988 9.37942 66.2261 8.27955C66.965 8.55899 67.724 8.78213 68.4967 8.94705C66.2974 10.2732 64.2037 11.767 62.2342 13.4152ZM61.8329 13.7527C59.7575 15.5234 57.799 17.4267 55.9698 19.4508C53.8673 19.0068 51.8019 18.4025 49.7917 17.6433C52.2409 15.7536 54.8128 14.0286 57.4904 12.4796C58.9035 13.0134 60.3552 13.439 61.8329 13.7527ZM49.4467 17.5027C48.6432 17.1786 47.8616 16.8028 47.1067 16.3777C46.4895 16.0352 45.9068 15.634 45.3667 15.1796C48.2656 13.5035 51.2722 12.0209 54.3667 10.7414C54.7472 11.0646 55.1586 11.3497 55.5948 11.5927C56.1259 11.8905 56.6758 12.1536 57.241 12.3802C54.5329 13.9142 51.9291 15.6254 49.4467 17.5027ZM46.5629 16.7414C47.333 17.1721 48.1296 17.5535 48.9479 17.8833C46.4291 19.8195 44.0315 21.9084 41.7685 24.1383C40.7311 23.7224 39.7215 23.2402 38.746 22.6946C37.9473 22.253 37.1937 21.7343 36.496 21.1458C39.136 19.0954 41.9048 17.2166 44.7854 15.5208C45.3372 15.9839 45.9325 16.3927 46.5629 16.7414ZM38.2567 23.1164C39.2449 23.669 40.2676 24.1576 41.3186 24.5789C39.0287 26.8712 36.8726 29.2933 34.861 31.8333C33.6109 31.3356 32.3946 30.7569 31.2198 30.1008C30.261 29.5692 29.3561 28.9456 28.5179 28.2389C30.8611 25.8562 33.3516 23.6231 35.9748 21.5527C36.6829 22.1484 37.4471 22.674 38.2567 23.1221V23.1164ZM35.0035 32.557C37.7785 33.6445 41.0467 34.5952 44.6786 35.3977C43.1635 38.1239 41.7442 40.9758 40.4335 43.9289C36.3085 43.0177 32.5942 41.9377 29.4423 40.702C31.1456 37.8891 33.0021 35.1719 35.0035 32.5627V32.557ZM40.1748 44.5195C38.8792 47.4877 37.6923 50.5589 36.6236 53.707C32.0542 52.6964 27.9423 51.5002 24.451 50.1333C25.8403 47.0967 27.3926 44.1374 29.101 41.2683C32.2773 42.517 36.0179 43.6064 40.1748 44.5252V44.5195ZM36.4248 54.3333C35.3729 57.4945 34.4429 60.7364 33.6442 64.0364C28.7167 62.9564 24.2917 61.6683 20.5323 60.2058C21.5725 56.991 22.788 53.8357 24.1735 50.7539C27.6873 52.1189 31.8217 53.3227 36.4154 54.3389L36.4248 54.3333ZM33.4792 64.7058C32.6973 68.0152 32.0485 71.3827 31.5423 74.7858C26.3823 73.6439 21.7398 72.2939 17.7985 70.7508C18.4574 67.4042 19.3031 64.0972 20.3317 60.8452C24.0948 62.3114 28.5442 63.6052 33.4792 64.7058ZM31.4448 75.4477C30.9598 78.8539 30.6223 82.2883 30.4323 85.7508C25.1448 84.5827 20.386 83.1971 16.3473 81.6164C16.5869 78.1901 17.0251 74.7807 17.6598 71.4052C21.6198 72.9558 26.2735 74.3058 31.4448 75.4477ZM31.4448 86.662C36.8073 87.8039 42.6948 88.7245 48.8954 89.4202C48.8442 91.1527 48.8173 92.8858 48.8148 94.6196C48.8123 96.3533 48.8329 98.0533 48.8767 99.7195C42.6686 99.0295 36.7886 98.1033 31.4261 96.9614C31.351 95.2889 31.3148 93.587 31.3173 91.8558C31.3198 90.1245 31.3635 88.3933 31.4485 86.662H31.4448ZM48.8936 100.376C48.9948 103.695 49.1823 106.875 49.4561 109.918C43.3904 109.245 37.6435 108.339 32.4029 107.223C31.9404 104.153 31.6229 100.953 31.4504 97.6214C36.8204 98.7614 42.6967 99.6877 48.8973 100.376H48.8936ZM49.5198 110.521C49.8111 113.543 50.186 116.413 50.6448 119.131C44.8548 118.486 39.3704 117.631 34.3679 116.559C33.591 113.686 32.9714 110.773 32.5117 107.833C37.7373 108.956 43.4729 109.85 49.5235 110.521H49.5198ZM50.1236 100.509C56.3636 101.167 62.9167 101.589 69.5936 101.758C69.6098 105.069 69.6479 108.239 69.7079 111.268C63.1773 111.105 56.7704 110.692 50.6654 110.049C50.4042 107.01 50.2248 103.833 50.1273 100.518L50.1236 100.509ZM69.7192 111.87C69.7792 114.87 69.8586 117.72 69.9573 120.42C63.7267 120.264 57.6086 119.868 51.7829 119.255C51.3517 116.543 50.9973 113.675 50.7198 110.653C56.8135 111.294 63.2073 111.706 69.7229 111.87H69.7192ZM69.9817 120.956C70.0829 123.626 70.201 126.133 70.3342 128.456C64.5348 128.311 58.8386 127.944 53.416 127.372C52.8323 125.013 52.3179 122.486 51.8729 119.79C57.6779 120.393 63.7717 120.793 69.9817 120.956ZM70.3567 128.921C70.4942 131.228 70.6467 133.353 70.8142 135.296C65.5642 135.165 60.4136 134.833 55.5085 134.315C54.7397 132.19 54.0801 130.026 53.5323 127.833C58.9267 128.403 64.5948 128.767 70.3623 128.913L70.3567 128.921ZM70.4898 57.4946C64.7185 57.3502 59.0523 56.9846 53.6598 56.4164C54.2654 53.1914 54.9367 50.0414 55.6698 46.9833C60.5767 47.5008 65.7273 47.8327 70.9773 47.9639C70.8048 51.0483 70.6417 54.2339 70.4954 57.487L70.4898 57.4946ZM70.9061 96.0427C70.9061 94.3102 70.9136 92.5752 70.9286 90.8377C77.6242 90.9727 84.4286 90.8508 91.1579 90.4627C91.1817 92.1989 91.1923 93.9333 91.1898 95.6658C91.1873 97.3983 91.1698 99.097 91.1373 100.762C84.4117 101.158 77.6054 101.28 70.9079 101.137C70.9079 99.4745 70.9092 97.7739 70.9117 96.0352L70.9061 96.0427ZM91.1261 101.411C91.0585 104.723 90.9385 107.896 90.766 110.93C84.1923 111.316 77.5417 111.436 70.996 111.305C70.9523 108.281 70.9242 105.111 70.9117 101.795C77.6073 101.921 84.4098 101.799 91.1317 101.403L91.1261 101.411ZM91.2367 120.551C96.0536 120.241 100.82 119.778 105.451 119.156C106.826 118.972 108.166 118.776 109.471 118.569C108.86 121.162 108.108 123.72 107.221 126.232C106.001 126.425 104.751 126.607 103.471 126.78C99.1436 127.363 94.6904 127.794 90.1904 128.092C90.5936 125.737 90.9423 123.221 91.2423 120.543L91.2367 120.551ZM105.564 118.62C100.914 119.246 96.1304 119.709 91.2967 120.02C91.5904 117.321 91.8335 114.466 92.026 111.453C97.0885 111.127 102.08 110.641 106.942 109.989C108.382 109.794 109.787 109.588 111.159 109.372C110.75 112.406 110.229 115.292 109.597 118.031C108.289 118.231 106.947 118.425 105.569 118.612L105.564 118.62ZM107.011 109.383C102.136 110.038 97.1298 110.525 92.0636 110.85C92.2473 107.822 92.3767 104.649 92.4517 101.33C97.6304 100.996 102.755 100.5 107.735 99.8302C109.212 99.6314 110.65 99.4214 112.047 99.2002C111.897 102.523 111.624 105.71 111.228 108.763C109.865 108.975 108.462 109.18 107.017 109.376L107.011 109.383ZM107.761 99.1721C102.775 99.8414 97.6492 100.34 92.4648 100.672C92.4986 99.0045 92.5167 97.3052 92.5192 95.5739C92.5217 93.8427 92.5104 92.1083 92.4854 90.3708C97.6679 90.037 102.798 89.5402 107.78 88.8708C109.257 88.6721 110.699 88.4614 112.105 88.2389C112.165 89.9714 112.194 91.7039 112.192 93.4364C112.189 95.1689 112.154 96.8702 112.085 98.5402C110.685 98.7564 109.245 98.9646 107.767 99.1646L107.761 99.1721ZM110.817 66.1983C116.463 65.2608 121.462 64.1358 125.75 62.8477C126.667 66.1398 127.418 69.4759 128 72.8433C123.517 74.1877 118.293 75.3727 112.389 76.3477C111.991 72.9183 111.47 69.5283 110.823 66.1908L110.817 66.1983ZM128.12 73.5108C128.685 76.9058 129.073 80.3279 129.282 83.7633C124.692 85.1433 119.345 86.3546 113.289 87.3539C113.146 83.8927 112.872 80.4389 112.48 77.0152C118.396 76.0383 123.633 74.8514 128.125 73.5052L128.12 73.5108ZM113.307 88.0439C119.362 87.0427 124.719 85.8277 129.316 84.4495C129.409 86.1745 129.453 87.9039 129.449 89.6377C129.445 91.3714 129.395 93.0752 129.297 94.7489C124.707 96.1214 119.345 97.3308 113.296 98.3377C113.366 96.6664 113.402 94.9652 113.405 93.2339C113.407 91.5027 113.377 89.7708 113.315 88.0383L113.307 88.0439ZM128.995 73.2427C133.389 71.8739 137.035 70.3514 139.87 68.7239C140.566 72.0731 141.043 75.464 141.297 78.8752C138.397 80.5383 134.669 82.0964 130.175 83.4952C129.967 80.0574 129.576 76.6332 129.003 73.237L128.995 73.2427ZM128.879 72.5752C128.286 69.2093 127.52 65.8762 126.584 62.5889C130.779 61.2764 134.26 59.8308 136.966 58.2764C138.092 61.4785 139.015 64.7481 139.732 68.0658C136.91 69.6839 133.272 71.2046 128.887 72.5695L128.879 72.5752ZM126.399 61.9439C125.455 58.7029 124.348 55.5113 123.084 52.3814C126.989 51.1664 130.229 49.8145 132.747 48.3689C134.265 51.3798 135.6 54.4799 136.743 57.6521C134.054 59.1895 130.595 60.6389 126.406 61.9383L126.399 61.9439ZM122.836 51.7664C121.574 48.6911 120.159 45.6811 118.595 42.7477C122.127 41.647 125.058 40.4227 127.338 39.1158C129.213 41.8961 130.921 44.7856 132.453 47.7689C129.948 49.2052 126.727 50.5514 122.842 51.7683L122.836 51.7664ZM121.22 30.4496C123.138 29.2964 124.48 28.0739 125.206 26.8158C127.605 29.1207 129.851 31.5803 131.928 34.1789C131.105 35.6077 129.577 36.9914 127.4 38.3039C125.498 35.565 123.434 32.9422 121.22 30.4496ZM126.961 38.5645C124.698 39.8639 121.788 41.0789 118.282 42.1702C116.731 39.3104 115.033 36.5329 113.195 33.8489C116.283 32.8889 118.844 31.8183 120.835 30.6764C123.033 33.1822 125.08 35.8162 126.965 38.5645H126.961ZM112.839 33.3277C111.033 30.7262 109.085 28.2262 107.004 25.8389C109.578 25.0364 111.715 24.1514 113.379 23.1914C115.86 25.3786 118.207 27.7141 120.406 30.1852C118.432 31.3177 115.895 32.377 112.839 33.3277ZM106.595 25.3758C104.562 23.0762 102.394 20.8998 100.102 18.8583C101.825 18.3502 103.489 17.6588 105.065 16.7958C107.793 18.6196 110.405 20.6122 112.885 22.7621C111.247 23.7052 109.137 24.5808 106.595 25.3758ZM104.769 16.2933C102.018 14.5178 99.153 12.9262 96.1923 11.5289C97.0529 11.0114 97.6567 10.4621 97.981 9.89768C101.178 11.0483 104.295 12.4107 107.311 13.9758C106.848 14.7783 105.991 15.5583 104.769 16.2933ZM97.4073 9.56205C94.1439 8.4408 90.8081 7.54248 87.4229 6.8733C87.4973 6.73462 87.5362 6.57971 87.5362 6.42236C87.5362 6.26501 87.4973 6.1101 87.4229 5.97143C90.792 6.37709 94.1284 7.0193 97.4073 7.8933C97.5439 8.15021 97.6153 8.43672 97.6153 8.72768C97.6153 9.01863 97.5439 9.30514 97.4073 9.56205ZM87.3948 5.91143C87.1455 5.53366 86.8033 5.22632 86.401 5.01893C89.4608 5.14418 92.5059 5.51095 95.5079 6.1158C96.4286 6.6558 97.0379 7.21455 97.3567 7.77518C94.0834 6.92021 90.7539 6.29741 87.3929 5.91143H87.3948ZM75.886 5.62455C76.7454 6.78111 77.4985 8.013 78.136 9.30518C77.1161 9.36518 76.0848 9.38393 75.0686 9.3633C75.2935 7.89893 75.5242 6.64643 75.7586 5.62643C75.7998 5.6283 75.8448 5.62643 75.886 5.62455ZM74.8679 9.35768C73.8554 9.3333 72.8598 9.26955 71.9129 9.17018C73.0244 7.86125 74.2693 6.6717 75.6273 5.6208C75.6667 5.6208 75.7079 5.6208 75.7492 5.6208C75.451 6.64455 75.1567 7.8933 74.8679 9.35768ZM71.7198 9.14955C70.7823 9.04455 69.8879 8.90393 69.0742 8.73143C71.115 7.48957 73.2675 6.44126 75.5035 5.60018L75.6123 5.61893C74.1952 6.65686 72.8906 7.84017 71.7198 9.14955ZM68.9073 8.6958C68.1799 8.54099 67.4653 8.331 66.7698 8.06768C69.5746 7.01052 72.4586 6.17667 75.3948 5.57393C75.4235 5.58482 75.4529 5.59359 75.4829 5.60018C73.2051 6.42851 71.0083 7.46475 68.9204 8.6958H68.9073ZM66.6573 8.0208C66.3785 7.90937 66.1072 7.77972 65.8454 7.63268C65.6316 7.51403 65.43 7.37461 65.2435 7.21642C68.5663 6.41785 71.9417 5.85705 75.3442 5.5383L75.3685 5.55518L75.4023 5.57205C72.4275 6.15721 69.5034 6.976 66.6573 8.0208ZM65.1798 7.16205C65.0492 7.05801 64.9406 6.92898 64.8605 6.7825C64.7803 6.63601 64.7301 6.47502 64.7129 6.30893C68.2262 5.79406 71.771 5.52403 75.3217 5.5008C75.3234 5.51402 75.3301 5.52609 75.3404 5.53455C71.9212 5.83589 68.5276 6.37976 65.1854 7.16205H65.1798ZM75.3479 5.4558C71.9798 5.17728 68.5957 5.14532 65.2229 5.36018C65.6094 5.04138 66.0434 4.78514 66.5092 4.6008C69.4924 4.63003 72.4681 4.90534 75.4061 5.42393C75.3849 5.43101 75.3652 5.44181 75.3479 5.4558ZM75.3479 5.4558C75.3376 5.46426 75.3309 5.47633 75.3292 5.48955C71.7798 5.49361 68.235 5.74421 64.7204 6.23955C64.7536 5.9199 64.9104 5.62586 65.1573 5.42018C68.5499 5.18453 71.9552 5.19643 75.346 5.4558H75.3479ZM65.2379 7.8183C65.5163 7.97355 65.8044 8.11071 66.1004 8.22893C63.2376 9.31224 60.4567 10.6006 57.7792 12.0839C57.2296 11.8627 56.6948 11.6065 56.1779 11.317C55.7559 11.0834 55.3577 10.809 54.9892 10.4977C58.1161 9.23917 61.3255 8.19611 64.5948 7.3758C64.7938 7.54443 65.0093 7.69267 65.2379 7.8183ZM54.8654 10.3889C54.2635 9.82643 53.9636 9.26393 53.9448 8.70143C57.2508 7.70797 60.6213 6.94304 64.0323 6.41205C64.0503 6.58857 64.1035 6.75969 64.1889 6.91525C64.2742 7.07081 64.39 7.20766 64.5292 7.31768C61.2414 8.11905 58.0126 9.14522 54.8654 10.3889ZM54.2486 10.6346C51.1347 11.8947 48.1075 13.3592 45.1867 15.0183C44.3073 14.2064 43.8742 13.3777 43.8404 12.5583C46.9069 11.1247 50.0673 9.90129 53.2998 8.89643C53.3204 9.47955 53.6279 10.0627 54.2486 10.6346ZM44.6073 15.3577C41.711 17.0377 38.9253 18.9015 36.2673 20.9377C35.1311 19.8896 34.5648 18.8208 34.5292 17.7614C37.3175 15.9304 40.226 14.2892 43.2348 12.8489C43.2629 13.6852 43.711 14.5289 44.6073 15.3577ZM35.7442 21.3427C33.107 23.3985 30.6021 25.6186 28.2442 27.9895C26.8773 26.7277 26.1948 25.4414 26.1517 24.1683C28.6228 21.9796 31.2387 19.96 33.9817 18.1233C34.0192 19.1958 34.5948 20.2796 35.7442 21.3427ZM28.0567 28.7114C28.9035 29.4229 29.8171 30.0508 30.7848 30.5864C31.9697 31.2495 33.196 31.8357 34.456 32.3414C32.4322 34.9402 30.5544 37.6494 28.831 40.4564C27.3985 39.8844 26.0044 39.2205 24.6573 38.4689C23.5569 37.8584 22.5183 37.1425 21.556 36.3314C23.5638 33.6565 25.7368 31.1097 28.0623 28.7058L28.0567 28.7114ZM24.2823 39.0183C25.6384 39.7777 27.0419 40.4491 28.4842 41.0283C26.753 43.8877 25.1794 46.8396 23.7704 49.8708C22.1848 49.234 20.6416 48.4963 19.1504 47.662C17.9314 46.9866 16.7809 46.1941 15.7154 45.2958C17.3485 42.3716 19.1646 39.5535 21.1529 36.8583C22.1235 37.6781 23.1715 38.4016 24.2823 39.0183ZM18.8448 48.2527C20.3426 49.0924 21.8934 49.834 23.4873 50.4727C22.0856 53.5469 20.8544 56.6961 19.7992 59.9058C18.0942 59.2208 16.4351 58.4267 14.8323 57.5283C13.5203 56.8022 12.2825 55.9494 11.1367 54.9821C12.3583 51.8572 13.7806 48.8146 15.3948 45.8733C16.4655 46.7756 17.6209 47.5725 18.8448 48.2527ZM14.6073 58.1583C16.217 59.0593 17.8829 59.8559 19.5948 60.5433C18.5529 63.789 17.6959 67.0912 17.0279 70.4339C15.2381 69.7162 13.4963 68.8838 11.8135 67.942C10.4373 67.1789 9.13864 66.2834 7.93605 65.2683C8.70689 61.9833 9.6966 58.7536 10.8985 55.6008C12.0485 56.5722 13.2906 57.4287 14.6073 58.1583ZM11.6729 68.5983C13.359 69.5433 15.1046 70.3782 16.8985 71.0977C16.2516 74.4696 15.8039 77.8768 15.5579 81.3014C13.7255 80.5658 11.9424 79.7128 10.2198 78.7477C8.80973 77.9655 7.47909 77.0481 6.24667 76.0083C6.52406 72.6143 7.03717 69.2436 7.7823 65.9208C8.98944 66.9371 10.2924 67.8338 11.6729 68.5983ZM16.3023 82.2971C20.3429 83.8795 25.1054 85.2633 30.3967 86.4333C30.3142 88.162 30.271 89.8933 30.2673 91.627C30.2635 93.3608 30.3004 95.0633 30.3779 96.7346C25.0867 95.5646 20.3242 94.1789 16.2817 92.5964C16.1804 90.9164 16.131 89.2102 16.1335 87.4777C16.136 85.7452 16.1923 84.0183 16.3023 82.2971ZM30.4098 97.3927C30.5728 100.61 30.8988 103.816 31.3867 107C26.2154 105.856 21.5617 104.503 17.611 102.958C16.9742 99.7556 16.5446 96.5157 16.3248 93.2583C20.3635 94.8389 25.1223 96.2246 30.4098 97.3927ZM31.4823 107.611C31.9535 110.556 32.5876 113.471 33.3817 116.345C28.4467 115.254 24.0067 113.962 20.2342 112.486C19.2005 109.577 18.3667 106.6 17.7385 103.576C21.6798 105.12 26.3223 106.47 31.4823 107.611ZM33.5448 116.891C34.2939 119.536 35.2082 122.132 36.2823 124.663C31.6885 123.646 27.5542 122.445 24.0442 121.07C22.6502 118.485 21.444 115.803 20.4348 113.045C24.1942 114.515 28.6192 115.803 33.5373 116.891H33.5448ZM34.5217 117.103C39.5054 118.164 44.971 119.023 50.7385 119.664C51.201 122.358 51.7404 124.888 52.3567 127.254C46.9679 126.656 41.8567 125.851 37.2048 124.861C36.1495 122.333 35.2509 119.742 34.5142 117.103H34.5217ZM52.4785 127.719C53.0572 129.917 53.7507 132.083 54.556 134.208C49.681 133.666 45.0611 132.939 40.8479 132.043C39.5433 129.892 38.3935 127.652 37.4073 125.338C42.0329 126.324 47.1104 127.123 52.471 127.719H52.4785ZM54.7061 134.598C55.4081 136.419 56.2377 138.189 57.1885 139.893C52.9285 139.421 48.8917 138.785 45.211 138.001C43.6842 136.268 42.3044 134.41 41.086 132.448C45.2823 133.331 49.8592 134.06 54.6985 134.598H54.7061ZM55.666 134.701C60.541 135.215 65.6504 135.545 70.8535 135.675C71.0242 137.591 71.2079 139.318 71.4067 140.842C66.8204 140.728 62.3185 140.437 58.0323 139.985C57.1205 138.281 56.3273 136.515 55.6585 134.701H55.666ZM71.4535 141.14C71.6523 142.64 71.8661 143.934 72.091 145.014C68.2642 144.918 64.5104 144.676 60.9329 144.3C59.8956 143.057 58.9831 141.714 58.2085 140.293C62.446 140.739 66.9029 141.018 71.4461 141.14H71.4535ZM71.8904 135.703C77.1142 135.808 82.4223 135.703 87.6685 135.403C87.2173 137.33 86.7298 139.064 86.2061 140.604C81.5898 140.876 76.9173 140.958 72.3198 140.866C72.1586 139.34 72.016 137.613 71.8829 135.699L71.8904 135.703ZM86.1029 140.904C85.6489 142.25 85.0897 143.557 84.4304 144.815C80.5792 145.042 76.6811 145.111 72.8467 145.035C72.6723 143.956 72.5073 142.661 72.3517 141.165C76.8967 141.253 81.5223 141.17 86.0954 140.9L86.1029 140.904ZM87.0048 140.848C90.5279 140.621 94.0135 140.285 97.4035 139.828C98.4035 139.693 99.3836 139.55 100.344 139.398C99.1811 140.91 97.8688 142.3 96.4267 143.548C95.6204 143.673 94.7948 143.793 93.9498 143.91C91.096 144.285 88.1598 144.577 85.1917 144.768C85.9001 143.512 86.5041 142.199 86.9973 140.844L87.0048 140.848ZM97.6154 139.516C94.1954 139.976 90.6779 140.319 87.1154 140.548C87.7335 138.84 88.263 137.101 88.7017 135.339C92.7442 135.078 96.7417 134.69 100.63 134.169C101.782 134.013 102.907 133.848 104.005 133.676C103.011 135.566 101.868 137.375 100.585 139.083C99.6142 139.233 98.6217 139.378 97.6079 139.518L97.6154 139.516ZM100.814 133.777C96.8992 134.302 92.8717 134.694 88.7992 134.956C89.2848 133.001 89.7367 130.858 90.1285 128.54C94.606 128.251 99.0348 127.822 103.34 127.243C104.615 127.071 105.86 126.89 107.075 126.697C106.264 128.951 105.307 131.15 104.212 133.28C103.103 133.453 101.968 133.617 100.807 133.773L100.814 133.777ZM108.115 126.53C112.785 125.787 117.403 124.75 121.942 123.425C120.714 125.821 119.308 128.121 117.734 130.305C113.606 131.505 109.405 132.445 105.159 133.117C106.285 130.987 107.27 128.785 108.108 126.526L108.115 126.53ZM108.29 126.06C109.201 123.546 109.974 120.984 110.604 118.385C116.229 117.448 121.21 116.323 125.482 115.046C124.567 117.75 123.467 120.387 122.189 122.94C117.624 124.27 112.979 125.311 108.282 126.056L108.29 126.06ZM110.727 117.845C111.379 115.108 111.915 112.219 112.338 109.179C118.242 108.204 123.466 107.019 127.949 105.675C127.373 108.657 126.608 111.601 125.66 114.487C121.372 115.775 116.373 116.91 110.72 117.841L110.727 117.845ZM112.415 108.571C112.82 105.518 113.102 102.33 113.262 99.0089C119.311 98.0096 124.664 96.7945 129.258 95.4183C129.049 98.656 128.649 101.879 128.06 105.069C123.573 106.402 118.338 107.591 112.42 108.568L112.415 108.571ZM130.156 95.1352C134.656 93.7364 138.378 92.1783 141.277 90.5152C141.019 93.7955 140.53 97.0535 139.814 100.265C136.979 101.893 133.332 103.415 128.939 104.782C129.538 101.592 129.947 98.3698 130.162 95.1314L130.156 95.1352ZM130.197 94.4733C130.297 92.7971 130.349 91.0927 130.351 89.3602C130.354 87.6277 130.31 85.8977 130.22 84.1702C134.72 82.7714 138.449 81.2114 141.35 79.5483C141.462 81.2633 141.517 82.9877 141.515 84.7214C141.512 86.4552 141.45 88.1639 141.327 89.8477C138.43 91.5183 134.699 93.0708 130.203 94.4695L130.197 94.4733ZM142.908 53.0358C144.144 56.1436 145.159 59.3346 145.945 62.5852C144.914 64.3721 143.005 66.1102 140.283 67.7489C139.559 64.4356 138.627 61.171 137.493 57.9745C140.103 56.3977 141.929 54.7345 142.914 53.0264L142.908 53.0358ZM138.282 43.4752C139.946 46.3521 141.411 49.3397 142.666 52.417C141.685 54.1195 139.867 55.7752 137.27 57.3371C136.116 54.1701 134.771 51.0763 133.242 48.0727C135.669 46.6139 137.367 45.0671 138.282 43.4752ZM137.952 42.9127C137.041 44.4952 135.35 46.0345 132.939 47.4839C131.392 44.5085 129.669 41.6284 127.779 38.8589C129.972 37.5464 131.512 36.1402 132.34 34.7002C134.392 37.309 136.268 40.052 137.954 42.9108L137.952 42.9127ZM132.11 29.5308C132.465 30.2046 132.649 30.9557 132.644 31.7175C132.64 32.4793 132.447 33.2282 132.084 33.8977C129.997 31.309 127.742 28.8605 125.334 26.5683C125.654 25.9791 125.823 25.3199 125.827 24.6493C125.831 23.9787 125.669 23.3175 125.356 22.7246C127.766 24.8298 130.024 27.1037 132.112 29.5289L132.11 29.5308ZM117.155 16.5558C119.865 18.2897 122.45 20.2119 124.891 22.3083C125.201 22.8957 125.361 23.5505 125.356 24.2145C125.352 24.8785 125.184 25.5312 124.867 26.1145C122.431 23.8314 119.849 21.71 117.136 19.7639C117.403 19.272 117.544 18.7219 117.548 18.1622C117.551 17.6026 117.416 17.0508 117.155 16.5558ZM124.734 26.3621C124.015 27.607 122.684 28.8183 120.796 29.9602C118.576 27.5004 116.209 25.1769 113.709 23.0021C115.308 22.0402 116.427 21.0202 117.033 19.9702C119.735 21.9319 122.308 24.067 124.734 26.3621ZM108.009 11.6302C110.982 12.9553 113.858 14.4871 116.617 16.2146C116.874 16.703 117.007 17.2473 117.004 17.7994C117.001 18.3515 116.861 18.8942 116.598 19.3796C113.848 17.4431 110.975 15.6893 107.995 14.1296C108.203 13.7462 108.313 13.3175 108.316 12.8815C108.318 12.4455 108.212 12.0156 108.009 11.6302ZM116.485 19.5858C115.889 20.6208 114.783 21.6277 113.204 22.5858C110.702 20.4445 108.068 18.4618 105.318 16.6495C106.563 15.8995 107.435 15.1064 107.907 14.2889C110.879 15.8651 113.745 17.6345 116.485 19.5858ZM107.397 13.8164C104.372 12.2658 101.247 10.919 98.0429 9.78518C98.1865 9.52068 98.2625 9.2248 98.2641 8.92385C98.2658 8.6229 98.193 8.32622 98.0523 8.06017C101.245 8.9415 104.372 10.0461 107.41 11.3658C107.61 11.7438 107.713 12.1653 107.711 12.5928C107.709 13.0203 107.601 13.4406 107.397 13.8164ZM107.324 11.2046C104.295 9.89893 101.176 8.80994 97.9923 7.9458C97.6642 7.3683 97.036 6.79268 96.0873 6.2358C98.9946 6.85398 101.848 7.70292 104.62 8.77455C105.967 9.5658 106.859 10.3833 107.324 11.2046ZM95.2623 5.97705C92.2948 5.39256 89.2851 5.04707 86.2623 4.94393C85.6471 4.62107 84.9998 4.36342 84.3311 4.17518C86.7837 4.05717 89.242 4.18279 91.6698 4.55018C92.9142 4.89809 94.1183 5.37636 95.2623 5.97705ZM86.6185 3.43455C88.23 3.68451 89.8253 4.02948 91.396 4.46768C89.0104 4.11263 86.595 4.00018 84.1867 4.13205C83.3416 3.89404 82.4833 3.70622 81.6161 3.56955C83.2681 3.28163 84.9534 3.23615 86.6185 3.43455ZM83.6992 4.16018C81.1378 4.33591 78.5989 4.75467 76.1167 5.4108C76.0841 5.40092 76.0509 5.3934 76.0173 5.3883C77.6914 4.58468 79.4604 3.99625 81.2823 3.63705C82.0973 3.76464 82.9043 3.93931 83.6992 4.16018ZM78.2823 3.30705C79.2667 3.3708 80.2192 3.47393 81.1098 3.6108C79.3419 3.9804 77.6295 4.57789 76.0154 5.3883C75.9763 5.38187 75.9369 5.37749 75.8973 5.37517C76.5629 4.54937 77.3706 3.84901 78.2823 3.30705ZM78.0854 3.29393C77.3692 3.72893 76.636 4.41893 75.8898 5.37517C75.8485 5.37517 75.8054 5.37517 75.7623 5.37517C75.6013 4.63712 75.3612 3.91858 75.0461 3.23205C76.066 3.2058 77.0898 3.23393 78.0798 3.29393H78.0854ZM74.8436 3.23205C75.2375 3.90331 75.5437 4.62229 75.7548 5.37143C75.7117 5.37143 75.6685 5.37143 75.6273 5.3808C74.4575 4.53597 73.165 3.87577 71.7948 3.4233C72.7867 3.3183 73.8142 3.25455 74.8379 3.23205H74.8436ZM70.921 3.5283C71.1442 3.4983 71.371 3.47205 71.5979 3.4458C73.0255 3.8859 74.3788 4.53819 75.6123 5.3808H75.5842L75.4979 5.3958C73.3364 4.66226 71.1034 4.15946 68.836 3.8958C69.4698 3.7533 70.1598 3.63143 70.9154 3.5283H70.921ZM68.6823 3.92955C70.999 4.1828 73.2832 4.67607 75.4979 5.40142C75.4686 5.40799 75.4397 5.41676 75.4117 5.42768C72.5109 4.89437 69.5707 4.60461 66.6217 4.56143C67.2883 4.29516 67.9756 4.08383 68.6767 3.92955H68.6823ZM61.7579 4.01018C63.9083 3.72518 66.0839 3.68367 68.2435 3.88643C67.4973 4.05026 66.7656 4.27411 66.0554 4.5558C63.2524 4.54779 60.4538 4.78178 57.691 5.25518C59.0096 4.73308 60.3677 4.31677 61.7523 4.01018H61.7579ZM57.4698 5.34705C60.2644 4.85557 63.0961 4.60465 65.9336 4.59705C65.4391 4.7914 64.9789 5.06359 64.5704 5.4033C61.3274 5.64178 58.1067 6.12123 54.9348 6.83768C55.6961 6.21054 56.5516 5.70747 57.4698 5.34705ZM54.8185 6.9558C58.0071 6.2246 61.2453 5.72951 64.5067 5.47455C64.2392 5.69322 64.0688 6.00852 64.0323 6.35205C60.6209 6.86961 57.2492 7.62139 53.941 8.60205C53.9635 8.0358 54.2598 7.48268 54.8185 6.9558ZM45.1173 9.99705C48.0691 8.80737 51.1049 7.83785 54.1998 7.09643C53.6242 7.64393 53.3186 8.22143 53.2998 8.78393C50.0682 9.77023 46.9077 10.9762 43.8404 12.3933C43.8648 11.5833 44.3017 10.7733 45.1173 9.99705ZM36.1792 14.4558C38.8553 12.8442 41.6474 11.4335 44.5323 10.2352C43.7017 11.0264 43.2573 11.8514 43.231 12.6839C40.2224 14.1117 37.3134 15.7404 34.5235 17.5589C34.5629 16.4958 35.1235 15.4514 36.1792 14.4558ZM28.1373 20.1896C28.921 19.5321 29.7223 18.8933 30.541 18.2733L30.9854 17.9377C32.4854 16.8127 34.0417 15.7577 35.6542 14.7727C34.5873 15.7889 34.0173 16.8483 33.9817 17.9189C31.2392 19.7398 28.6232 21.7444 26.1517 23.9189C26.1929 22.6458 26.8698 21.3933 28.1373 20.1821V20.1896ZM25.6679 24.6089C25.711 25.8952 26.401 27.1927 27.781 28.4677C25.4423 30.8567 23.2561 33.3904 21.2354 36.0539C19.6679 34.6064 18.8842 33.1308 18.8354 31.6683C20.9504 29.1608 23.2331 26.7997 25.6679 24.6014V24.6089ZM18.4173 32.1614C18.466 33.6333 19.2554 35.1202 20.8342 36.5789C18.8349 39.261 17.0069 42.0666 15.361 44.9789C13.6248 43.3758 12.7585 41.7408 12.7042 40.1227C14.4215 37.3396 16.3305 34.6794 18.4173 32.1614ZM12.3667 40.6739C12.4229 42.3014 13.3042 43.9439 15.0404 45.5489C13.4159 48.4818 11.9847 51.5176 10.756 54.637C8.88105 52.9102 7.95479 51.1533 7.89479 49.4114C9.17653 46.3967 10.6709 43.4768 12.3667 40.6739ZM7.64542 50.0152C7.70355 51.7645 8.64105 53.5289 10.516 55.2652C9.3072 58.4102 8.31182 61.6331 7.53667 64.912C5.57542 63.1008 4.59667 61.2577 4.53667 59.4295C5.34132 56.2196 6.38036 53.0731 7.64542 50.0152ZM2.75542 70.0252C3.04838 66.6708 3.5905 63.3429 4.3773 60.0689C4.43917 61.8989 5.42167 63.7477 7.3773 65.5627C6.62591 68.8825 6.10653 72.2507 5.82292 75.6427C3.82229 73.7883 2.81917 71.8983 2.75542 70.0252ZM5.99354 81.8508C5.99354 80.1183 6.05604 78.3958 6.18104 76.6833C7.41666 77.7247 8.75113 78.6428 10.1654 79.4245C11.8909 80.3915 13.6771 81.2458 15.5129 81.9821C15.4042 83.7008 15.3479 85.4277 15.3442 87.1627C15.3404 88.8977 15.3904 90.6039 15.4942 92.2814C13.6579 91.5448 11.8711 90.6905 10.1448 89.7239C8.73403 88.942 7.40276 88.0245 6.1698 86.9846C6.0498 85.2958 5.99104 83.5845 5.99354 81.8508ZM6.21854 87.6502C7.45146 88.6904 8.78202 89.6091 10.1917 90.3933C11.9169 91.3573 13.7025 92.2091 15.5373 92.9433C15.763 96.2034 16.2015 99.4453 16.8498 102.648C15.052 101.927 13.3028 101.09 11.6129 100.143C10.2338 99.3787 8.93267 98.4813 7.72792 97.4639C6.98588 94.2339 6.48141 90.9539 6.21854 87.6502ZM7.87605 98.1033C9.07872 99.1177 10.3774 100.013 11.7535 100.775C13.4369 101.718 15.1793 102.551 16.9698 103.269C17.608 106.298 18.4537 109.279 19.501 112.192C17.7882 111.505 16.1216 110.709 14.5117 109.807C13.195 109.077 11.9523 108.221 10.801 107.251C9.60113 104.279 8.62344 101.221 7.87605 98.1033ZM11.0373 107.831C12.1835 108.798 13.4212 109.65 14.7329 110.377C16.3372 111.275 17.9975 112.069 19.7035 112.755C20.7269 115.52 21.9488 118.209 23.3598 120.798C21.7659 120.16 20.2151 119.418 18.7173 118.578C17.492 117.898 16.3354 117.1 15.2635 116.197C13.6505 113.516 12.2379 110.72 11.0373 107.831ZM24.121 126.36C23.0127 125.745 21.9665 125.024 20.9973 124.207C19.0091 121.849 17.1991 119.347 15.5823 116.72C16.6481 117.617 17.7985 118.407 19.0173 119.081C20.5071 119.916 22.0498 120.654 23.6354 121.29C25.0163 123.762 26.5833 126.126 28.3229 128.36C26.8808 127.784 25.4772 127.115 24.121 126.358V126.36ZM24.3085 121.569C27.7998 122.936 31.9117 124.132 36.4829 125.143C37.4941 127.465 38.6709 129.711 40.0042 131.865C35.8492 130.946 32.1085 129.858 28.9323 128.615C27.2165 126.387 25.6739 124.031 24.3179 121.567L24.3085 121.569ZM29.2679 129.045C32.4198 130.278 36.1342 131.358 40.2611 132.271C41.5093 134.244 42.9198 136.108 44.4779 137.846C40.8461 137.043 37.5779 136.093 34.8029 135.007C32.8037 133.171 30.9558 131.176 29.2773 129.043L29.2679 129.045ZM41.5473 140.146C39.2983 138.734 37.1731 137.133 35.1948 135.361C38.3129 136.542 41.5166 137.482 44.7779 138.174C46.2502 139.775 47.8741 141.23 49.6267 142.518C46.88 141.934 44.1821 141.141 41.5567 140.145L41.5473 140.146ZM45.4848 138.33C49.1317 139.106 53.1292 139.734 57.3479 140.205C58.1643 141.637 59.1215 142.984 60.2054 144.226C56.6429 143.831 53.2829 143.302 50.2135 142.648C48.5059 141.365 46.9278 139.918 45.5017 138.328L45.4848 138.33ZM55.8067 145.878C53.9523 145.081 52.1921 144.079 50.5586 142.893C53.5904 143.538 56.9129 144.061 60.421 144.451C61.3501 145.487 62.4237 146.384 63.6085 147.114C60.8448 146.799 58.2198 146.386 55.8235 145.876L55.8067 145.878ZM61.0998 144.521C64.6285 144.896 68.3354 145.132 72.1117 145.226C72.2775 146.077 72.5159 146.913 72.8242 147.723C69.8448 147.648 66.9198 147.461 64.1354 147.161C63.0064 146.431 61.9895 145.541 61.1167 144.519L61.0998 144.521ZM67.411 148.471H67.5048H67.5179H67.411ZM67.6473 148.492C66.4784 148.314 65.3562 147.907 64.3454 147.294C67.0792 147.583 69.9479 147.768 72.8729 147.841C73.1223 148.419 73.3829 148.768 73.651 148.876C71.6092 148.822 69.5879 148.693 67.6642 148.49L67.6473 148.492ZM80.2904 148.768C78.2185 148.89 76.1204 148.927 74.0579 148.886C73.8479 148.779 73.6454 148.43 73.4504 147.855C76.3829 147.913 79.3623 147.855 82.306 147.686C81.7554 148.228 81.0623 148.602 80.3073 148.766L80.2904 148.768ZM82.4336 147.566C79.4336 147.742 76.3979 147.796 73.4129 147.736C73.1693 146.919 72.9814 146.086 72.8504 145.243C76.6342 145.32 80.4817 145.243 84.2879 145.027C83.802 145.957 83.183 146.812 82.4504 147.564L82.4336 147.566ZM91.7823 146.576C91.1573 146.675 90.5148 146.769 89.8548 146.859C87.6311 147.157 85.3454 147.378 83.0335 147.528C83.8284 146.783 84.5078 145.924 85.0492 144.978C87.9798 144.791 90.8767 144.51 93.6948 144.131C94.5285 144.018 95.3411 143.899 96.1323 143.773C94.8059 144.886 93.3444 145.828 91.7823 146.576ZM99.4586 144.888C97.115 145.571 94.7309 146.106 92.3204 146.49C93.9317 145.737 95.4433 144.787 96.8204 143.662C99.8766 143.177 102.899 142.499 105.869 141.631C103.845 142.919 101.702 144.01 99.4698 144.888H99.4586ZM106.276 141.375C103.267 142.255 100.205 142.943 97.1092 143.437C98.5953 142.185 99.9516 140.786 101.157 139.261C104.83 138.678 108.462 137.864 112.032 136.824C110.254 138.51 108.327 140.033 106.276 141.375ZM112.392 136.479C108.785 137.535 105.116 138.362 101.405 138.956C102.726 137.241 103.908 135.423 104.937 133.518C109.154 132.844 113.323 131.905 117.421 130.706C115.907 132.766 114.225 134.697 112.392 136.479ZM120.642 133.117C118.651 134.261 116.09 135.33 113.004 136.291C114.864 134.506 116.574 132.57 118.117 130.503C121.623 129.412 124.533 128.197 126.796 126.9C124.913 129.127 122.861 131.206 120.657 133.117H120.642ZM127.169 126.453C124.889 127.766 121.959 128.986 118.426 130.085C120.029 127.897 121.465 125.59 122.72 123.185C126.603 121.976 129.826 120.631 132.331 119.193C130.798 121.74 129.075 124.167 127.175 126.453H127.169ZM132.62 118.683C130.1 120.129 126.86 121.483 122.956 122.698C124.254 120.142 125.372 117.498 126.303 114.787C130.482 113.486 133.951 112.038 136.645 110.49C135.51 113.317 134.166 116.055 132.625 118.683H132.62ZM136.872 109.923C134.167 111.476 130.685 112.923 126.49 114.236C127.456 111.345 128.234 108.395 128.819 105.405C133.205 104.041 136.842 102.521 139.672 100.905C138.959 103.974 138.025 106.988 136.878 109.923H136.872ZM142.73 104.968L142.749 104.926C142.816 104.793 142.88 104.658 142.936 104.523L142.73 104.968ZM142.812 104.677C141.828 106.385 140 108.052 137.397 109.614C138.556 106.673 139.499 103.652 140.219 100.575C142.944 98.9358 144.852 97.1996 145.882 95.4108C145.093 98.5715 144.068 101.669 142.818 104.677H142.812ZM146.039 94.7733C145.006 96.5639 143.094 98.3058 140.364 99.9483C141.087 96.7316 141.582 93.4679 141.845 90.1814C144.635 88.5033 146.59 86.7221 147.646 84.8921C147.359 88.2211 146.824 91.524 146.045 94.7733H146.039ZM147.695 84.2227C146.639 86.0564 144.682 87.8377 141.882 89.5177C142.007 87.8314 142.07 86.1227 142.07 84.3914C142.07 82.6602 142.015 80.9358 141.905 79.2183C144.697 77.5308 146.654 75.7552 147.717 73.9233C147.842 75.6295 147.905 77.3495 147.905 79.0833C147.905 80.817 147.837 82.5302 147.7 84.2227H147.695Z" fill="#1CC26F"/>
<path d="M139.595 111.322C140.211 110.211 140.797 109.08 141.352 107.928L141.727 107.137C141.198 108.189 140.521 109.518 139.595 111.322Z" fill="#1CC26F"/>
<path d="M114.813 137.548L114.567 137.713C116.096 136.793 117.566 135.781 118.97 134.681C118.407 135.091 117.781 135.523 117.059 136.018C116.323 136.546 115.574 137.056 114.813 137.548Z" fill="#1CC26F"/>
<path d="M130.128 26.9733C128.416 24.9952 127.556 24.1608 125.296 22.0327C126.751 23.4783 128.594 25.3308 130.128 26.9733Z" fill="#1CC26F"/>
<path d="M61.0005 4.10205C60.5524 4.17893 60.1062 4.2708 59.6655 4.37018C59.9674 4.30643 60.2693 4.2483 60.5749 4.19393L61.0005 4.10205Z" fill="#1CC26F"/>
<path d="M142.689 46.4508C141.791 44.2683 141.282 43.2896 139.991 40.8933C139.964 40.8502 139.94 40.8108 139.916 40.7677C140.369 41.5914 140.807 42.4258 141.228 43.2708L142.689 46.4508Z" fill="#1CC26F"/>
<path d="M148.82 75.8883L148.632 70.7302C148.632 70.8389 148.632 70.9458 148.621 71.0527C148.677 72.2752 148.737 73.8127 148.809 75.8883H148.82Z" fill="#1CC26F"/>
<path d="M62.3973 3.8433C63.0723 3.70642 63.5429 3.6183 64.0848 3.53017C62.8829 3.71767 62.1835 3.84705 60.9929 4.10205L61.3192 4.04955C61.6792 3.9783 62.0354 3.9108 62.3973 3.8433Z" fill="#1CC26F"/>
<path d="M95.3111 5.29268L95.6355 5.37893C94.5105 5.06206 94.0192 4.92706 93.0536 4.70018C93.4661 4.80518 93.978 4.94018 94.6811 5.12581C94.893 5.17831 95.103 5.23643 95.3111 5.29268Z" fill="#1CC26F"/>
<path d="M84.6574 3.15893C83.793 3.04643 83.5324 3.02205 82.7018 2.94143L83.8774 3.06518C84.1455 3.0933 84.4043 3.12705 84.6574 3.15893Z" fill="#1CC26F"/>
<path d="M131.056 27.9839C130.766 27.6614 130.452 27.3221 130.119 26.9733C130.565 27.4889 131.069 28.0833 131.671 28.7977C131.483 28.5138 131.278 28.242 131.056 27.9839Z" fill="#1CC26F"/>
<path d="M64.0924 3.53018C64.578 3.4533 65.1424 3.36705 65.8568 3.26018C65.0899 3.37455 64.563 3.4533 64.0924 3.53018Z" fill="#1CC26F"/>
<path d="M63.7343 3.60518C64.3043 3.50768 64.8911 3.41206 65.4949 3.31831C64.8861 3.40706 64.2993 3.50268 63.7343 3.60518Z" fill="#1CC26F"/>
<path d="M59.3448 4.44331L59.658 4.37206L59.3448 4.44331Z" fill="#1CC26F"/>
<path d="M48.9911 7.65143L48.9648 7.66455L49.068 7.62518L48.9911 7.65143Z" fill="#1CC26F"/>
<path d="M71.3673 2.72768C71.7423 2.70706 72.2523 2.68268 73.0304 2.64706C72.3142 2.67331 72.0554 2.68268 71.3673 2.72768Z" fill="#1CC26F"/>
<path d="M69.6573 2.8458C70.4636 2.78955 70.9792 2.75205 71.3636 2.72768C70.6717 2.7633 70.3923 2.7858 69.6573 2.8458Z" fill="#1CC26F"/>
<path d="M67.9098 3.0183C67.9773 3.0183 68.0429 3.00893 68.1085 3.00143L69.661 2.8533L67.9098 3.0183Z" fill="#1CC26F"/>
<path d="M48.483 7.84643L48.2955 7.9233L48.4418 7.86705L48.483 7.84643Z" fill="#1CC26F"/>
<path d="M28.7299 19.6571C28.6136 19.7527 28.503 19.8446 28.3961 19.9439C28.5574 19.8071 28.7242 19.6739 28.8874 19.5389L28.9605 19.4789L28.7299 19.6571Z" fill="#1CC26F"/>
<path d="M35.2305 14.8308L36.0817 14.2402C35.808 14.4314 35.5323 14.6302 35.2305 14.8308Z" fill="#1CC26F"/>
<path d="M27.6723 20.5758C27.5636 20.6696 27.4586 20.7633 27.3517 20.8589L27.6479 20.6002L27.6723 20.5758Z" fill="#1CC26F"/>
<path d="M38.5736 12.7083C38.3543 12.8358 38.1443 12.9652 37.9418 13.0946C38.268 12.9071 38.5868 12.7196 38.9018 12.5321L38.5736 12.7083Z" fill="#1CC26F"/>
<path d="M38.9073 12.5283C40.158 11.8402 41.0898 11.3283 41.8417 10.9214C40.9005 11.4052 39.9292 11.9339 38.9073 12.5283Z" fill="#1CC26F"/>
<path d="M47.9074 8.0808L47.7817 8.13705L48.2974 7.9308L47.9074 8.0808Z" fill="#1CC26F"/>
<path d="M46.7973 8.53643C45.1026 9.24328 43.4465 10.0394 41.8361 10.9214C43.9154 9.84893 45.8186 8.99955 47.7723 8.12955C47.4461 8.2683 47.1198 8.39581 46.7973 8.53643Z" fill="#1CC26F"/>
<path d="M95.7668 5.41643L95.6355 5.37893L95.7386 5.40893L95.7668 5.41643Z" fill="#1CC26F"/>
<path d="M101.345 7.25955C100.955 7.11893 100.527 6.96893 100.085 6.81705C100.619 7.00455 101.26 7.24643 102.061 7.53893C101.83 7.44518 101.592 7.35143 101.345 7.25955Z" fill="#1CC26F"/>
<path d="M90.5149 4.12268C91.7018 4.38893 92.4649 4.56143 93.0536 4.70018C92.0599 4.44518 91.6436 4.35893 90.5149 4.12268Z" fill="#1CC26F"/>
<path d="M102.226 7.59705L102.303 7.62705L102.346 7.64393L102.226 7.59705Z" fill="#1CC26F"/>
<path d="M122.778 19.8146C120.691 18.0896 119.778 17.3621 118.053 16.1752C120.106 17.6508 121.859 19.0946 123.678 20.6546C123.394 20.3577 123.094 20.0773 122.778 19.8146Z" fill="#1CC26F"/>
<path d="M123.738 20.6433C123.614 20.5271 123.485 20.4108 123.348 20.2964L123.738 20.6433Z" fill="#1CC26F"/>
<path d="M111.029 11.7314C109.075 10.6739 108.112 10.1677 106.717 9.5358C107.255 9.79268 107.802 10.0664 108.434 10.3908C109.314 10.8164 110.18 11.2683 111.029 11.7314Z" fill="#1CC26F"/>
<path d="M113.06 12.8977L112.831 12.7683L112.612 12.6464C112.919 12.8339 113.221 13.0083 113.514 13.1864C113.365 13.0852 113.217 12.9914 113.06 12.8977Z" fill="#1CC26F"/>
<path d="M89.5417 3.93705L90.5149 4.12455C90.2149 4.06267 89.8849 4.0008 89.5417 3.93705Z" fill="#1CC26F"/>
<path d="M76.2198 2.60205C76.9698 2.61705 77.4442 2.62455 77.8061 2.63393C77.1573 2.60955 76.9042 2.60768 76.2198 2.60205Z" fill="#1CC26F"/>
<path d="M77.8062 2.6433L79.3943 2.70518C78.7155 2.66205 78.453 2.6433 77.8062 2.6433Z" fill="#1CC26F"/>
<path d="M74.8867 2.60768H76.2198C75.8242 2.60018 75.3348 2.60393 74.8867 2.60768Z" fill="#1CC26F"/>
<path d="M84.6573 3.15893L85.5442 3.27705C85.2574 3.2358 84.9611 3.2058 84.6573 3.15893Z" fill="#1CC26F"/>
<path d="M81.6105 2.84768L82.7073 2.94143C82.3792 2.91143 81.9948 2.87955 81.6105 2.84768Z" fill="#1CC26F"/>
<path d="M85.6774 3.29018L86.1592 3.35955L86.3317 3.38205L85.6774 3.29018Z" fill="#1CC26F"/>
</svg>
