<svg width="243" height="243" viewBox="0 0 243 243" fill="none" xmlns="http://www.w3.org/2000/svg">
<path d="M104.906 218.24C105.883 218.424 106.721 218.842 107.419 219.494C108.111 220.15 108.596 221.014 108.874 222.084C109.146 223.158 109.146 224.413 108.876 225.848C108.599 227.322 108.13 228.503 107.472 229.391C106.812 230.284 106.043 230.9 105.164 231.237C104.279 231.579 103.364 231.661 102.421 231.484C101.7 231.348 101.123 231.112 100.689 230.776C100.249 230.444 99.9146 230.069 99.687 229.65C99.4528 229.236 99.2901 228.841 99.199 228.466L99.0901 228.445L97.8755 234.894L94.3159 234.224L97.5463 217.071L101.064 217.734L100.676 219.794L100.827 219.822C101.062 219.497 101.366 219.187 101.739 218.893C102.106 218.603 102.554 218.39 103.082 218.252C103.606 218.114 104.214 218.11 104.906 218.24ZM103.241 220.867C102.665 220.758 102.15 220.823 101.695 221.061C101.233 221.304 100.842 221.69 100.523 222.219C100.198 222.748 99.9632 223.395 99.8191 224.16C99.6751 224.925 99.656 225.609 99.762 226.213C99.868 226.817 100.093 227.31 100.437 227.693C100.781 228.076 101.241 228.321 101.816 228.43C102.402 228.54 102.927 228.474 103.389 228.231C103.851 227.989 104.238 227.605 104.551 227.08C104.864 226.555 105.09 225.921 105.23 225.179C105.371 224.43 105.392 223.749 105.294 223.135C105.189 222.526 104.969 222.022 104.633 221.623C104.291 221.229 103.827 220.977 103.241 220.867Z" fill="#1CC26F"/>
<path d="M84.2455 212.275C85.4914 212.786 86.4604 213.478 87.1525 214.352C87.8371 215.228 88.2304 216.231 88.3326 217.359C88.4325 218.493 88.2206 219.699 87.6968 220.977C87.186 222.223 86.4958 223.217 85.6263 223.96C84.7568 224.702 83.7753 225.157 82.6818 225.322C81.5831 225.486 80.4397 225.324 79.2516 224.837C78.4525 224.509 77.7615 224.076 77.1784 223.536C76.5879 222.999 76.1396 222.37 75.8335 221.649C75.5222 220.925 75.3803 220.118 75.4081 219.226C75.4336 218.34 75.6577 217.382 76.0801 216.352L76.4584 215.429L86.6861 219.623L85.8325 221.705L78.767 218.808C78.5687 219.291 78.4981 219.763 78.5554 220.222C78.6126 220.682 78.7848 221.093 79.0718 221.456C79.3514 221.823 79.7357 222.106 80.2246 222.307C80.7345 222.516 81.2351 222.583 81.7264 222.508C82.2103 222.436 82.6434 222.248 83.0259 221.945C83.4062 221.646 83.6971 221.259 83.8985 220.783L84.71 218.803C84.9557 218.204 85.0577 217.641 85.0158 217.114C84.9686 216.585 84.7885 216.118 84.4755 215.713C84.1624 215.309 83.7246 214.991 83.1621 214.76C82.7889 214.607 82.4256 214.52 82.0723 214.498C81.7191 214.476 81.3889 214.525 81.0819 214.644C80.7749 214.764 80.501 214.953 80.2604 215.21L77.2375 213.731C77.7013 213.049 78.2919 212.53 79.0093 212.173C79.7193 211.82 80.5216 211.645 81.4163 211.65C82.3036 211.657 83.2467 211.866 84.2455 212.275Z" fill="#1CC26F"/>
<path d="M57.7049 208.514L60.5937 210.171C60.4849 210.439 60.4464 210.72 60.478 211.013C60.5066 211.311 60.6115 211.601 60.7928 211.883C60.9662 212.168 61.2285 212.425 61.5797 212.657C62.0495 212.966 62.5114 213.127 62.9653 213.14C63.4161 213.158 63.7493 213.003 63.9649 212.676C64.1367 212.415 64.1776 212.125 64.0875 211.808C63.9974 211.49 63.7344 211.109 63.2984 210.666L61.5818 208.964C60.6625 208.046 60.1011 207.173 59.8978 206.346C59.6944 205.518 59.852 204.71 60.3706 203.922C60.8424 203.206 61.4675 202.716 62.246 202.453C63.0198 202.187 63.8721 202.142 64.8029 202.32C65.7258 202.499 66.6619 202.901 67.611 203.526C69.0585 204.478 70.0134 205.539 70.4756 206.707C70.9299 207.877 70.887 209.032 70.3468 210.173L67.261 208.366C67.4614 207.866 67.4649 207.385 67.2715 206.924C67.075 206.468 66.7063 206.062 66.1653 205.706C65.6337 205.356 65.1394 205.177 64.6824 205.169C64.2175 205.162 63.8748 205.321 63.6545 205.645C63.4781 205.924 63.4459 206.226 63.5581 206.551C63.6672 206.881 63.9278 207.25 64.3399 207.658L65.9851 209.281C66.9123 210.198 67.4636 211.091 67.6388 211.962C67.8093 212.829 67.6259 213.671 67.0886 214.487C66.6262 215.19 66.038 215.67 65.3241 215.928C64.6054 216.182 63.809 216.219 62.9349 216.038C62.0561 215.854 61.1492 215.455 60.2143 214.839C58.8332 213.93 57.9386 212.923 57.5303 211.817C57.1173 210.709 57.1755 209.608 57.7049 208.514Z" fill="#1CC26F"/>
<path d="M56.9164 195.784L48.1314 205.489L45.4397 203.053L54.2246 193.347L56.9164 195.784ZM45.6468 205.516C46.047 205.879 46.2702 206.322 46.3164 206.847C46.3546 207.372 46.2041 207.822 45.8647 208.197C45.5292 208.567 45.1002 208.758 44.5777 208.768C44.0473 208.778 43.5819 208.602 43.1818 208.24C42.7816 207.877 42.5624 207.434 42.5242 206.909C42.4779 206.384 42.6226 205.936 42.9581 205.566C43.2975 205.191 43.7324 204.998 44.2629 204.988C44.7853 204.978 45.2466 205.154 45.6468 205.516Z" fill="#1CC26F"/>
<path d="M48.8835 179.994C49.6155 180.915 50.1164 181.805 50.3863 182.665C50.6571 183.517 50.7306 184.308 50.6069 185.037C50.4831 185.767 50.1982 186.404 49.752 186.948L47.3085 184.6C47.4494 184.358 47.5399 184.079 47.5799 183.764C47.6198 183.449 47.58 183.107 47.4605 182.737C47.3418 182.36 47.118 181.964 46.7891 181.551C46.2976 180.933 45.7415 180.544 45.1208 180.384C44.5011 180.216 43.8398 180.412 43.1372 180.97L41.2627 182.461L41.3581 182.581C41.7418 182.479 42.1594 182.452 42.6109 182.499C43.0624 182.547 43.5238 182.703 43.9951 182.967C44.4664 183.231 44.9177 183.634 45.3492 184.177C45.9609 184.946 46.34 185.788 46.4864 186.702C46.6248 187.616 46.4733 188.553 46.0321 189.513C45.583 190.473 44.7913 191.404 43.6573 192.306C42.4966 193.229 41.3768 193.81 40.2979 194.051C39.2191 194.292 38.2369 194.253 37.3514 193.933C36.4623 193.61 35.719 193.072 35.1213 192.32C34.6652 191.747 34.3811 191.188 34.2691 190.646C34.1527 190.107 34.1453 189.605 34.247 189.139C34.3406 188.673 34.4741 188.265 34.6472 187.917L34.5624 187.81L32.8413 189.179L30.5975 186.357L40.9441 178.13C41.8157 177.437 42.7148 177.07 43.6413 177.031C44.5678 176.991 45.4784 177.232 46.3731 177.755C47.2687 178.269 48.1055 179.016 48.8835 179.994ZM42.4984 184.973C42.1342 184.515 41.7131 184.219 41.2352 184.083C40.7494 183.947 40.2258 183.964 39.6645 184.135C39.0952 184.304 38.5103 184.628 37.9099 185.105C37.3096 185.582 36.8564 186.081 36.5505 186.6C36.2402 187.122 36.09 187.641 36.1 188.156C36.11 188.67 36.2971 189.157 36.6614 189.615C37.0327 190.082 37.4724 190.375 37.9805 190.493C38.4841 190.615 39.0238 190.582 39.5993 190.393C40.1749 190.204 40.754 189.878 41.3366 189.414C41.928 188.944 42.3741 188.455 42.6746 187.948C42.9672 187.439 43.1058 186.933 43.0904 186.43C43.067 185.926 42.8697 185.44 42.4984 184.973Z" fill="#1CC26F"/>
<path d="M28.0096 171.521L34.7613 168.102L36.4017 171.341L24.7232 177.255L23.1598 174.169L25.2202 173.125L25.1509 172.988C24.3408 173.074 23.584 172.912 22.8806 172.504C22.1721 172.099 21.5983 171.463 21.1593 170.596C20.7486 169.785 20.5679 168.988 20.6172 168.205C20.6665 167.422 20.9359 166.697 21.4255 166.028C21.9099 165.363 22.6058 164.8 23.5131 164.341L30.949 160.575L32.5894 163.814L25.7314 167.287C25.0141 167.644 24.5489 168.109 24.3359 168.682C24.1178 169.257 24.1731 169.869 24.5017 170.518C24.7224 170.954 25.0113 171.291 25.3683 171.531C25.7227 171.766 26.1273 171.885 26.5822 171.891C27.0294 171.893 27.5053 171.77 28.0096 171.521Z" fill="#1CC26F"/>
<path d="M26.9129 147.836C27.2731 149.134 27.3204 150.324 27.0547 151.406C26.782 152.484 26.2311 153.409 25.4018 154.182C24.5672 154.956 23.4846 155.528 22.1543 155.897C20.8567 156.257 19.6481 156.322 18.5283 156.09C17.4085 155.858 16.4479 155.361 15.6466 154.599C14.8438 153.831 14.2707 152.829 13.9272 151.592C13.6962 150.759 13.6152 149.947 13.6844 149.156C13.7466 148.36 13.9687 147.62 14.3508 146.936C14.7314 146.247 15.2823 145.64 16.0035 145.116C16.7192 144.593 17.6136 144.182 18.6867 143.884L19.6475 143.617L22.6043 154.269L20.4363 154.87L18.3937 147.512C17.89 147.652 17.4742 147.886 17.1463 148.212C16.8184 148.539 16.5989 148.928 16.4878 149.377C16.3697 149.823 16.3813 150.3 16.5227 150.809C16.6701 151.34 16.924 151.777 17.2843 152.119C17.6377 152.457 18.0516 152.684 18.526 152.8C18.995 152.918 19.4794 152.91 19.9791 152.777L22.0403 152.205C22.6645 152.032 23.1718 151.767 23.5624 151.411C23.9514 151.05 24.2099 150.621 24.3377 150.126C24.4655 149.63 24.4481 149.09 24.2855 148.504C24.1776 148.115 24.024 147.774 23.8249 147.482C23.6257 147.189 23.3847 146.958 23.1019 146.789C22.8191 146.62 22.5022 146.519 22.1512 146.487L21.4665 143.192C22.2895 143.141 23.0618 143.289 23.7835 143.637C24.4982 143.981 25.128 144.508 25.6729 145.217C26.2108 145.923 26.6241 146.796 26.9129 147.836Z" fill="#1CC26F"/>
<path d="M23.8746 134.634L10.8459 135.908L10.5032 132.405L12.7765 132.183L12.7632 132.047C11.9313 131.888 11.2816 131.55 10.814 131.03C10.3408 130.511 10.0685 129.887 9.99713 129.158C9.97943 128.977 9.97165 128.78 9.9738 128.569C9.97595 128.358 9.98907 128.171 10.0132 128.009L13.2195 127.695C13.1852 127.869 13.1629 128.109 13.1526 128.412C13.1423 128.716 13.1494 128.992 13.1737 129.241C13.2257 129.772 13.3881 130.236 13.6609 130.632C13.9275 131.022 14.2762 131.319 14.7072 131.523C15.1376 131.72 15.6185 131.793 16.1501 131.741L23.5211 131.02L23.8746 134.634Z" fill="#1CC26F"/>
<path d="M23.3487 117.928C23.3256 118.49 23.107 118.964 22.6931 119.351C22.2737 119.732 21.783 119.91 21.2209 119.887C20.6646 119.864 20.1959 119.646 19.8148 119.232C19.434 118.813 19.2552 118.322 19.2783 117.76C19.3007 117.215 19.519 116.747 19.9332 116.354C20.3474 115.962 20.8326 115.777 21.389 115.8C21.7637 115.815 22.1032 115.926 22.4075 116.132C22.7063 116.332 22.9431 116.589 23.1179 116.903C23.2869 117.217 23.3639 117.559 23.3487 117.928Z" fill="#1CC26F"/>
<path d="M27.6619 92.4702C27.3507 93.4145 26.8261 94.1898 26.0879 94.7961C25.3461 95.3952 24.4265 95.7621 23.3291 95.8971C22.2282 96.0248 20.9842 95.8602 19.5974 95.4032C18.1727 94.9337 17.0638 94.3141 16.2706 93.5442C15.472 92.7725 14.9633 91.9289 14.7445 91.0133C14.5222 90.0905 14.5612 89.1731 14.8618 88.2611C15.0912 87.565 15.401 87.024 15.7914 86.6382C16.1782 86.2452 16.594 85.9634 17.0391 85.793C17.4805 85.6154 17.8933 85.5062 18.2777 85.4653L18.3124 85.3601L12.0796 83.3062L13.2132 79.866L29.7909 85.3288L28.6706 88.7286L26.6793 88.0724L26.6313 88.2181C26.9233 88.4938 27.1904 88.836 27.4326 89.2449C27.6711 89.6465 27.8237 90.1186 27.8902 90.6609C27.9585 91.1979 27.8824 91.801 27.6619 92.4702ZM25.278 90.4732C25.4611 89.9173 25.4647 89.3981 25.2888 88.9153C25.1092 88.4254 24.778 87.9873 24.2952 87.6008C23.8141 87.209 23.2039 86.8912 22.4646 86.6476C21.7253 86.404 21.0494 86.2949 20.4367 86.3204C19.8241 86.3458 19.3054 86.5039 18.8806 86.7947C18.4557 87.0854 18.1517 87.5087 17.9686 88.0645C17.7819 88.6311 17.7783 89.1594 17.9579 89.6493C18.1374 90.1392 18.4668 90.5738 18.946 90.9531C19.4253 91.3323 20.0238 91.6402 20.7415 91.8767C21.4646 92.115 22.137 92.2259 22.7586 92.2094C23.3766 92.1857 23.9052 92.0339 24.3445 91.7539C24.7801 91.4667 25.0913 91.0398 25.278 90.4732Z" fill="#1CC26F"/>
<path d="M36.2976 72.7761C35.627 73.9438 34.8132 74.8131 33.8564 75.384C32.8974 75.9472 31.8517 76.205 30.7193 76.1574C29.582 76.1071 28.4146 75.7381 27.2174 75.0505C26.0496 74.3799 25.1549 73.5647 24.5333 72.6049C23.9117 71.6451 23.5907 70.6124 23.5706 69.5066C23.5532 68.3959 23.8643 67.2837 24.5038 66.1702C24.9338 65.4213 25.4549 64.7934 26.067 64.2866C26.677 63.772 27.3597 63.4106 28.1149 63.2022C28.873 62.9888 29.6919 62.9547 30.5719 63.0996C31.4468 63.2417 32.3672 63.5901 33.3329 64.1447L34.1976 64.6413L28.6927 74.227L26.7416 73.1065L30.5445 66.4844C30.0912 66.2241 29.6331 66.0921 29.17 66.0882C28.707 66.0844 28.2765 66.2008 27.8786 66.4375C27.4785 66.6664 27.1469 67.0099 26.8837 67.4682C26.6092 67.9461 26.4768 68.4335 26.4863 68.9304C26.4937 69.4195 26.6227 69.8736 26.8734 70.2928C27.1192 70.7091 27.4648 71.0485 27.9104 71.3109L29.7655 72.3762C30.3272 72.6988 30.8719 72.874 31.3997 72.9019C31.9303 72.9249 32.4168 72.8079 32.8593 72.5509C33.3017 72.2939 33.6743 71.9018 33.977 71.3746C34.1779 71.0248 34.3126 70.6762 34.381 70.3289C34.4494 69.9817 34.4445 69.6479 34.3662 69.3278C34.288 69.0077 34.1371 68.7114 33.9136 68.4389L35.778 65.6373C36.3928 66.1869 36.8297 66.8408 37.0888 67.5989C37.3459 68.3493 37.4132 69.1677 37.2908 70.054C37.1663 70.9325 36.8352 71.8399 36.2976 72.7761Z" fill="#1CC26F"/>
<path d="M41.6211 43.5075L48.4535 55.5755L45.7581 58.653L32.8949 53.4707L35.4218 50.5856L44.2591 54.7116L44.349 54.609L39.0886 46.399L41.6211 43.5075Z" fill="#1CC26F"/>
<path d="M61.6889 43.7346C60.6197 44.5532 59.5336 45.0413 58.4306 45.1989C57.3286 45.3485 56.2644 45.183 55.238 44.7023C54.2081 44.2171 53.2734 43.4263 52.4341 42.3301C51.6154 41.2609 51.1045 40.1637 50.9012 39.0384C50.6979 37.9131 50.8003 36.8365 51.2082 35.8085C51.6207 34.777 52.3367 33.871 53.3563 33.0903C54.042 32.5653 54.7649 32.1871 55.5252 31.9556C56.2865 31.7162 57.0557 31.646 57.8328 31.7451C58.6145 31.8407 59.3833 32.1251 60.1392 32.5983C60.8916 33.067 61.6064 33.7434 62.2834 34.6276L62.8896 35.4193L54.1129 42.1395L52.7451 40.353L58.8082 35.7106C58.4904 35.2955 58.1187 34.997 57.693 34.8148C57.2673 34.6327 56.8252 34.574 56.3667 34.6388C55.9093 34.6957 55.4708 34.8847 55.0513 35.2059C54.6137 35.541 54.3034 35.9396 54.1205 36.4016C53.9387 36.8558 53.8826 37.3245 53.9522 37.8079C54.0183 38.2868 54.2063 38.7333 54.5161 39.1473L55.8166 40.8458C56.2104 41.36 56.6454 41.7319 57.1215 41.9612C57.6022 42.1871 58.0962 42.2669 58.6035 42.2004C59.1109 42.134 59.6059 41.916 60.0886 41.5464C60.4089 41.3012 60.6676 41.0315 60.8646 40.7375C61.0617 40.4435 61.1859 40.1337 61.2372 39.8082C61.2885 39.4826 61.2636 39.1511 61.1625 38.8134L63.9634 36.9479C64.3186 37.6921 64.4694 38.464 64.416 39.2634C64.3637 40.0549 64.1101 40.8359 63.6553 41.6063C63.2015 42.3688 62.546 43.0783 61.6889 43.7346Z" fill="#1CC26F"/>
<path d="M67.7595 18.9201L76.0517 34.2792L72.8569 36.004L64.5647 20.645L67.7595 18.9201Z" fill="#1CC26F"/>
<path d="M88.848 29.032C87.5985 29.4693 86.4249 29.582 85.3274 29.3701C84.2334 29.151 83.2727 28.6505 82.4452 27.8685C81.6159 27.0812 80.9798 26.0548 80.5369 24.7891C80.0902 23.5128 79.9465 22.3109 80.1059 21.1837C80.2633 20.0511 80.7023 19.0607 81.4228 18.2126C82.1468 17.3572 83.1336 16.7109 84.3832 16.2736C85.6327 15.8364 86.8045 15.7273 87.8985 15.9464C88.996 16.1583 89.9594 16.6579 90.7888 17.4452C91.6162 18.2271 92.2533 19.2562 92.7 20.5326C93.1429 21.7983 93.2856 22.9974 93.1282 24.13C92.9688 25.2573 92.5272 26.2486 91.8031 27.1039C91.0826 27.952 90.0976 28.5947 88.848 29.032ZM87.9351 26.3717C88.5036 26.1728 88.9219 25.8458 89.19 25.3908C89.4563 24.9304 89.5875 24.3849 89.5835 23.7542C89.5848 23.1217 89.4598 22.4461 89.2083 21.7274C88.9568 21.0088 88.6333 20.4027 88.2378 19.909C87.8477 19.4135 87.405 19.0687 86.9098 18.8749C86.4145 18.681 85.8827 18.6835 85.3142 18.8824C84.7404 19.0832 84.3149 19.4157 84.0379 19.8799C83.7663 20.3421 83.6298 20.8895 83.6284 21.5221C83.6324 22.1528 83.7602 22.8274 84.0116 23.546C84.2631 24.2647 84.5839 24.8717 84.9741 25.3673C85.3695 25.861 85.8176 26.2038 86.3182 26.3958C86.8223 26.5806 87.3613 26.5726 87.9351 26.3717Z" fill="#1CC26F"/>
<path d="M102.423 29.8433L100.025 12.0038L103.572 11.5268L103.865 13.7061L104.026 13.6845C104.136 13.3141 104.317 12.9287 104.567 12.5282C104.822 12.1213 105.175 11.7642 105.627 11.4569C106.083 11.1433 106.675 10.9376 107.401 10.84C108.347 10.7128 109.253 10.8432 110.12 11.2312C110.985 11.6136 111.724 12.2681 112.336 13.1948C112.947 14.1159 113.352 15.3198 113.552 16.8064C113.747 18.2536 113.677 19.507 113.344 20.5665C113.016 21.6197 112.486 22.4563 111.755 23.0762C111.029 23.6898 110.174 24.0628 109.188 24.1953C108.49 24.2892 107.881 24.2537 107.36 24.0887C106.844 23.9229 106.408 23.6863 106.052 23.3788C105.694 23.0657 105.41 22.7399 105.198 22.4015L105.088 22.4162L106.022 29.3594L102.423 29.8433ZM104.419 18.0173C104.523 18.7888 104.72 19.4473 105.012 19.9929C105.303 20.5385 105.673 20.9445 106.121 21.211C106.569 21.4718 107.083 21.5632 107.663 21.4852C108.249 21.4065 108.723 21.1794 109.085 20.8039C109.446 20.4228 109.693 19.931 109.824 19.3286C109.96 18.7198 109.977 18.0381 109.876 17.2836C109.775 16.5346 109.582 15.8898 109.297 15.3491C109.013 14.8083 108.646 14.4047 108.197 14.1383C107.749 13.8718 107.229 13.7784 106.637 13.8579C106.052 13.9366 105.577 14.1581 105.213 14.5223C104.855 14.8858 104.607 15.3663 104.47 15.9638C104.332 16.5613 104.315 17.2458 104.419 18.0173Z" fill="#1CC26F"/>
<path d="M128.067 23.7133C126.723 23.6201 125.586 23.2677 124.654 22.6563C123.729 22.0396 123.04 21.2115 122.588 20.1721C122.137 19.1269 121.959 17.9157 122.055 16.5383C122.148 15.1949 122.49 14.0341 123.082 13.0557C123.674 12.0773 124.463 11.3375 125.449 10.8364C126.441 10.3357 127.577 10.1298 128.858 10.2187C129.72 10.2785 130.512 10.4731 131.235 10.8023C131.965 11.1264 132.588 11.5826 133.105 12.1709C133.628 12.7597 134.017 13.4815 134.271 14.3364C134.525 15.1856 134.613 16.1656 134.536 17.2766L134.467 18.2714L123.44 17.5059L123.596 15.2613L131.214 15.7901C131.25 15.2686 131.169 14.7988 130.97 14.3806C130.771 13.9624 130.478 13.626 130.092 13.3714C129.711 13.1114 129.257 12.9632 128.73 12.9266C128.18 12.8884 127.684 12.9821 127.241 13.2076C126.804 13.4279 126.452 13.7424 126.184 14.1509C125.917 14.5539 125.763 15.013 125.721 15.5284L125.573 17.6625C125.528 18.3087 125.609 18.8753 125.814 19.3622C126.025 19.8496 126.343 20.2362 126.767 20.522C127.192 20.8077 127.707 20.9716 128.314 21.0137C128.716 21.0417 129.089 21.0106 129.431 20.9204C129.773 20.8303 130.071 20.6801 130.325 20.4699C130.579 20.2597 130.779 19.9946 130.927 19.6745L134.261 20.1281C134.036 20.9211 133.638 21.5998 133.069 22.164C132.507 22.723 131.8 23.1409 130.949 23.4179C130.104 23.6896 129.143 23.7881 128.067 23.7133Z" fill="#1CC26F"/>
<path d="M141.527 25.2531L144.671 12.5455L148.088 13.391L147.539 15.6082L147.672 15.641C148.098 14.9096 148.635 14.4101 149.28 14.1426C149.927 13.8696 150.607 13.8211 151.318 13.9971C151.495 14.0408 151.682 14.0989 151.881 14.1715C152.079 14.244 152.251 14.3187 152.396 14.3956L151.622 17.5228C151.469 17.4322 151.251 17.3315 150.968 17.2205C150.685 17.1096 150.423 17.0241 150.18 16.964C149.662 16.8358 149.17 16.8342 148.706 16.9593C148.249 17.0803 147.853 17.31 147.517 17.6484C147.187 17.9882 146.958 18.4174 146.83 18.9358L145.051 26.1252L141.527 25.2531Z" fill="#1CC26F"/>
<path d="M157.451 30.33C156.929 30.1207 156.555 29.7565 156.328 29.2372C156.109 28.7148 156.104 28.1925 156.313 27.6704C156.521 27.1535 156.883 26.7845 157.4 26.5633C157.922 26.3442 158.445 26.3393 158.967 26.5485C159.473 26.7514 159.842 27.1136 160.074 27.635C160.306 28.1563 160.318 28.6754 160.111 29.1923C159.971 29.5404 159.754 29.8235 159.458 30.0417C159.17 30.2568 158.849 30.3942 158.494 30.4541C158.142 30.5088 157.794 30.4674 157.451 30.33Z" fill="#1CC26F"/>
<path d="M180.011 42.8883C179.225 42.2799 178.669 41.5267 178.344 40.6285C178.026 39.7294 177.987 38.74 178.226 37.6605C178.473 36.58 179.043 35.4622 179.937 34.3073C180.854 33.1208 181.808 32.2821 182.799 31.7911C183.793 31.2957 184.758 31.0975 185.694 31.1967C186.638 31.2949 187.49 31.6378 188.249 32.2253C188.829 32.6738 189.236 33.1464 189.469 33.6431C189.711 34.1388 189.837 34.6248 189.85 35.1012C189.87 35.5766 189.835 36.0022 189.745 36.3782L189.833 36.446L193.848 31.2553L196.713 33.4716L186.034 47.2775L183.202 45.0873L184.485 43.4289L184.364 43.3351C184.006 43.5184 183.595 43.656 183.128 43.748C182.67 43.8389 182.174 43.8252 181.641 43.707C181.112 43.5923 180.569 43.3194 180.011 42.8883ZM182.689 41.307C183.152 41.6651 183.64 41.8417 184.154 41.8369C184.676 41.831 185.2 41.665 185.725 41.3387C186.255 41.0159 186.758 40.5466 187.234 39.9309C187.71 39.3152 188.039 38.7144 188.219 38.1284C188.399 37.5424 188.423 37.0006 188.291 36.5031C188.159 36.0056 187.861 35.5779 187.398 35.2198C186.926 34.8547 186.43 34.6752 185.908 34.681C185.386 34.6869 184.866 34.8524 184.349 35.1777C183.832 35.503 183.342 35.9645 182.879 36.5622C182.414 37.1644 182.085 37.7613 181.893 38.3528C181.709 38.9433 181.676 39.4923 181.793 39.9998C181.919 40.5063 182.217 40.942 182.689 41.307Z" fill="#1CC26F"/>
<path d="M195.664 57.56C194.802 56.5556 194.269 55.5037 194.067 54.4044C193.872 53.3057 193.989 52.2287 194.416 51.1733C194.847 50.1142 195.571 49.1479 196.588 48.2744C197.614 47.3936 198.681 46.8221 199.789 46.5599C200.901 46.294 201.984 46.3422 203.036 46.7043C204.096 47.0671 205.058 47.7507 205.92 48.7552C206.782 49.7597 207.311 50.8113 207.505 51.9099C207.707 53.0092 207.593 54.0884 207.162 55.1475C206.735 56.2029 206.008 57.1711 204.982 58.0519C203.965 58.9254 202.9 59.495 201.788 59.7609C200.68 60.0231 199.596 59.9728 198.536 59.61C197.484 59.2478 196.526 58.5645 195.664 57.56ZM197.809 55.7409C198.201 56.1979 198.658 56.4684 199.18 56.5524C199.705 56.6327 200.261 56.5562 200.847 56.3228C201.437 56.0937 202.02 55.7312 202.598 55.2352C203.176 54.7393 203.622 54.2173 203.938 53.6691C204.257 53.1253 204.417 52.5875 204.418 52.0556C204.418 51.5238 204.222 51.0294 203.829 50.5724C203.433 50.1111 202.969 49.836 202.436 49.7471C201.906 49.6624 201.347 49.7347 200.757 49.9638C200.171 50.1972 199.589 50.5619 199.012 51.0578C198.434 51.5537 197.985 52.0736 197.666 52.6174C197.35 53.1656 197.194 53.7077 197.198 54.2439C197.209 54.7806 197.413 55.2797 197.809 55.7409Z" fill="#1CC26F"/>
<path d="M206.821 73.4719C206.162 72.2976 205.833 71.1533 205.833 70.0391C205.841 68.927 206.155 67.897 206.777 66.949C207.403 65.9982 208.318 65.1849 209.522 64.5092C210.696 63.8502 211.855 63.4998 212.997 63.4579C214.14 63.416 215.192 63.6698 216.151 64.2192C217.114 64.7735 217.91 65.6106 218.538 66.7304C218.961 67.4836 219.233 68.2528 219.354 69.0382C219.483 69.8257 219.444 70.5971 219.236 71.3524C219.03 72.1127 218.64 72.8334 218.065 73.5147C217.494 74.1932 216.723 74.8049 215.752 75.3499L214.883 75.8379L209.473 66.1982L211.435 65.097L215.172 71.7564C215.628 71.5006 215.976 71.1749 216.217 70.7793C216.457 70.3837 216.578 69.9543 216.579 69.4913C216.587 69.0305 216.462 68.5696 216.204 68.1088C215.934 67.6282 215.583 67.2646 215.152 67.0182C214.728 66.7738 214.272 66.6519 213.784 66.6523C213.3 66.65 212.832 66.7729 212.378 67.021L210.512 68.0679C209.947 68.3848 209.518 68.7628 209.223 69.2017C208.932 69.6455 208.783 70.1233 208.777 70.6349C208.771 71.1465 208.916 71.6674 209.214 72.1976C209.411 72.5494 209.642 72.8436 209.905 73.0804C210.168 73.3171 210.457 73.4839 210.772 73.5808C211.087 73.6777 211.419 73.7 211.767 73.6477L213.217 76.6845C212.43 76.9307 211.645 76.9708 210.861 76.8047C210.085 76.6408 209.348 76.2792 208.649 75.7198C207.959 75.1626 207.349 74.4133 206.821 73.4719Z" fill="#1CC26F"/>
<path d="M212.918 85.5703L225.268 81.2278L226.435 84.5484L224.28 85.3061L224.326 85.4347C225.171 85.3903 225.883 85.5647 226.461 85.9577C227.044 86.3489 227.457 86.8902 227.701 87.5817C227.761 87.7532 227.815 87.9419 227.863 88.1477C227.912 88.3536 227.944 88.5382 227.959 88.7015L224.92 89.7701C224.911 89.5923 224.876 89.3548 224.814 89.0575C224.751 88.7603 224.679 88.4937 224.596 88.2579C224.418 87.754 224.15 87.3424 223.791 87.023C223.439 86.7071 223.03 86.5018 222.563 86.407C222.097 86.3176 221.613 86.3615 221.109 86.5386L214.122 88.9954L212.918 85.5703Z" fill="#1CC26F"/>
<path d="M219.245 115.91C219.171 114.588 219.388 113.429 219.896 112.433C220.409 111.443 221.156 110.658 222.137 110.08C223.123 109.501 224.286 109.174 225.624 109.099C226.975 109.024 228.169 109.219 229.208 109.684C230.253 110.149 231.083 110.845 231.698 111.772C232.319 112.705 232.667 113.832 232.741 115.154C232.815 116.476 232.595 117.632 232.082 118.622C231.574 119.618 230.827 120.406 229.841 120.984C228.86 121.563 227.695 121.89 226.345 121.965C225.006 122.04 223.814 121.845 222.77 121.38C221.731 120.915 220.9 120.216 220.279 119.283C219.664 118.356 219.319 117.232 219.245 115.91ZM222.054 115.77C222.088 116.371 222.286 116.863 222.649 117.247C223.018 117.631 223.506 117.908 224.113 118.079C224.72 118.255 225.404 118.322 226.164 118.279C226.924 118.237 227.596 118.094 228.18 117.851C228.764 117.613 229.218 117.283 229.542 116.861C229.865 116.439 230.01 115.927 229.976 115.326C229.942 114.719 229.741 114.218 229.372 113.823C229.003 113.434 228.515 113.151 227.907 112.975C227.3 112.804 226.616 112.74 225.856 112.782C225.096 112.825 224.424 112.965 223.84 113.203C223.256 113.446 222.802 113.781 222.479 114.209C222.162 114.642 222.02 115.163 222.054 115.77Z" fill="#1CC26F"/>
<path d="M231.579 138.031L228.87 137.712L229.816 129.688L232.524 130.007L231.579 138.031ZM219.307 130.312L233.248 131.955C234.19 132.066 234.95 132.342 235.527 132.781C236.104 133.227 236.51 133.79 236.744 134.47C236.979 135.149 237.048 135.898 236.951 136.717C236.886 137.27 236.784 137.77 236.646 138.217C236.507 138.67 236.39 139.005 236.296 139.222L233.663 138.26C233.725 138.124 233.788 137.954 233.852 137.75C233.915 137.552 233.96 137.345 233.985 137.131C234.047 136.6 233.967 136.216 233.743 135.978C233.525 135.741 233.196 135.596 232.756 135.544L218.883 133.909L219.307 130.312Z" fill="#1CC26F"/>
<path d="M223.773 165.477L221.235 164.478L224.121 157.142L226.659 158.14L223.773 165.477ZM228.922 160.954L227.594 164.333L216.236 159.865C215.924 159.743 215.662 159.694 215.45 159.721C215.244 159.75 215.073 159.835 214.937 159.977C214.8 160.125 214.686 160.312 214.597 160.539C214.535 160.698 214.485 160.862 214.45 161.031C214.419 161.202 214.395 161.333 214.377 161.424L211.654 160.966C211.668 160.776 211.701 160.514 211.753 160.181C211.799 159.845 211.901 159.454 212.058 159.009C212.346 158.183 212.735 157.511 213.225 156.996C213.713 156.485 214.285 156.164 214.941 156.032C215.598 155.899 216.324 155.992 217.121 156.312L228.922 160.954Z" fill="#1CC26F"/>
<path d="M212.988 174.619L206.528 170.676L208.419 167.577L223.318 176.671L221.48 179.682L215.784 176.206L215.704 176.337C216.209 176.991 216.477 177.714 216.507 178.504C216.542 179.298 216.301 180.119 215.782 180.968C215.309 181.744 214.726 182.317 214.034 182.687C213.345 183.064 212.587 183.221 211.761 183.156C210.937 183.099 210.09 182.802 209.22 182.264L202.105 177.922L203.997 174.823L210.559 178.828C211.244 179.253 211.887 179.405 212.486 179.285C213.082 179.17 213.573 178.797 213.958 178.166C214.215 177.745 214.353 177.316 214.372 176.882C214.388 176.452 214.28 176.04 214.048 175.646C213.818 175.259 213.465 174.917 212.988 174.619Z" fill="#1CC26F"/>
<path d="M197.468 183.777L207.426 192.274L205.07 195.036L195.112 186.539L197.468 183.777ZM207.526 194.757C207.876 194.347 208.313 194.111 208.836 194.049C209.36 193.995 209.814 194.133 210.199 194.461C210.579 194.786 210.782 195.209 210.807 195.731C210.833 196.261 210.671 196.731 210.32 197.142C209.97 197.552 209.533 197.784 209.009 197.838C208.486 197.899 208.034 197.768 207.654 197.443C207.269 197.115 207.064 196.686 207.038 196.156C207.013 195.634 207.176 195.168 207.526 194.757Z" fill="#1CC26F"/>
<path d="M191.886 200.523L186.977 194.764L189.739 192.408L198.232 202.37L195.599 204.615L194.101 202.858L193.984 202.957C194.257 203.725 194.278 204.498 194.047 205.278C193.819 206.062 193.336 206.769 192.596 207.399C191.905 207.989 191.172 208.352 190.4 208.488C189.627 208.624 188.859 208.532 188.094 208.213C187.333 207.899 186.623 207.355 185.963 206.581L180.556 200.238L183.319 197.882L188.306 203.732C188.821 204.346 189.382 204.689 189.989 204.761C190.6 204.838 191.182 204.64 191.735 204.169C192.107 203.852 192.367 203.492 192.516 203.088C192.661 202.689 192.683 202.267 192.581 201.824C192.479 201.388 192.247 200.955 191.886 200.523Z" fill="#1CC26F"/>
<path d="M166.821 202.799C167.851 202.232 168.813 201.888 169.706 201.766C170.591 201.642 171.383 201.703 172.082 201.947C172.781 202.192 173.36 202.58 173.821 203.111L171.097 205.125C170.881 204.945 170.622 204.809 170.318 204.717C170.014 204.625 169.67 204.607 169.286 204.662C168.894 204.716 168.466 204.87 168.003 205.125C167.311 205.506 166.834 205.988 166.573 206.573C166.303 207.156 166.385 207.841 166.818 208.627L167.972 210.726L168.106 210.652C168.07 210.256 168.114 209.84 168.237 209.403C168.359 208.966 168.59 208.537 168.93 208.117C169.269 207.697 169.743 207.32 170.35 206.985C171.211 206.512 172.105 206.279 173.031 206.289C173.955 206.306 174.853 206.612 175.726 207.209C176.596 207.813 177.381 208.75 178.079 210.019C178.794 211.318 179.179 212.52 179.236 213.624C179.292 214.728 179.088 215.689 178.624 216.509C178.156 217.331 177.501 217.973 176.66 218.436C176.017 218.789 175.419 218.976 174.866 218.995C174.315 219.019 173.819 218.942 173.377 218.764C172.933 218.593 172.553 218.393 172.239 218.164L172.12 218.229L173.18 220.156L170.021 221.894L163.649 210.312C163.112 209.336 162.902 208.389 163.019 207.469C163.135 206.548 163.526 205.691 164.191 204.897C164.849 204.101 165.726 203.401 166.821 202.799ZM170.657 209.93C170.144 210.212 169.781 210.577 169.567 211.025C169.351 211.481 169.28 212 169.353 212.582C169.425 213.172 169.646 213.803 170.015 214.475C170.385 215.147 170.8 215.677 171.26 216.066C171.723 216.46 172.209 216.695 172.719 216.772C173.228 216.848 173.739 216.745 174.251 216.463C174.774 216.176 175.136 215.792 175.339 215.311C175.544 214.835 175.602 214.297 175.512 213.698C175.422 213.099 175.198 212.473 174.839 211.821C174.475 211.159 174.068 210.637 173.618 210.256C173.166 209.882 172.69 209.66 172.192 209.591C171.691 209.529 171.179 209.642 170.657 209.93Z" fill="#1CC26F"/>
<path d="M148.592 225.822L151.701 224.629C151.841 224.883 152.034 225.09 152.281 225.251C152.53 225.417 152.821 225.519 153.155 225.557C153.485 225.602 153.85 225.561 154.251 225.435C154.788 225.266 155.204 225.01 155.501 224.666C155.8 224.328 155.89 223.972 155.773 223.598C155.679 223.3 155.48 223.085 155.177 222.954C154.874 222.823 154.412 222.787 153.793 222.845L151.39 223.101C150.097 223.234 149.066 223.118 148.296 222.753C147.526 222.387 146.999 221.755 146.716 220.855C146.458 220.037 146.473 219.243 146.761 218.473C147.044 217.705 147.548 217.017 148.273 216.407C148.995 215.805 149.898 215.333 150.982 214.991C152.635 214.471 154.06 214.401 155.258 214.78C156.451 215.167 157.32 215.93 157.863 217.069L154.513 218.32C154.252 217.849 153.881 217.543 153.402 217.401C152.925 217.266 152.377 217.295 151.759 217.49C151.152 217.681 150.701 217.951 150.406 218.3C150.107 218.656 150.014 219.022 150.126 219.398C150.23 219.71 150.444 219.926 150.767 220.045C151.092 220.169 151.543 220.2 152.119 220.137L154.417 219.888C155.713 219.748 156.754 219.885 157.54 220.299C158.32 220.714 158.857 221.388 159.15 222.32C159.402 223.122 159.403 223.882 159.152 224.598C158.896 225.316 158.421 225.957 157.729 226.52C157.031 227.085 156.149 227.536 155.081 227.872C153.504 228.369 152.158 228.426 151.043 228.044C149.922 227.664 149.106 226.924 148.592 225.822Z" fill="#1CC26F"/>
<path d="M136.107 218.493C136.664 218.411 137.171 218.537 137.628 218.871C138.08 219.212 138.348 219.661 138.43 220.218C138.511 220.768 138.384 221.27 138.049 221.721C137.708 222.174 137.259 222.441 136.702 222.523C136.163 222.603 135.662 222.476 135.199 222.142C134.736 221.808 134.464 221.366 134.383 220.815C134.328 220.444 134.373 220.09 134.519 219.752C134.659 219.422 134.868 219.141 135.144 218.911C135.421 218.686 135.742 218.547 136.107 218.493Z" fill="#1CC26F"/>
</svg>
